<?xml version="1.0" encoding="utf-8"?>
<!-- Generator: Adobe Illustrator 25.3.1, SVG Export Plug-In . SVG Version: 6.00 Build 0)  -->
<svg version="1.1" id="Layer_1" xmlns="http://www.w3.org/2000/svg" xmlns:xlink="http://www.w3.org/1999/xlink" x="0px" y="0px"
	 viewBox="0 0 1024 1024" style="enable-background:new 0 0 1024 1024;" xml:space="preserve">
<g>
	<path d="M0,883c0-112.67,0-225.33,0-338c0.44-0.66,1.09-1.27,1.28-2c3.91-15.49,8.04-30.93,8.04-47.11
		C9.3,449.1,9.46,402.3,9.45,355.51c-0.01-34.97,0.02-69.94-0.41-104.9C8.85,235.92,6.57,221.45,0,208c0-3.67,0-7.33,0-11
		c8.6,17.92,13.94,37.02,14.09,56.66c0.56,69.82,0.07,139.65-0.12,209.47c-0.06,20.81,0.68,41.7-3.86,62.23
		c-1.15,5.23-2.81,10.34-4.4,16.1c13.17-4.47,25.61-8.69,38.05-12.9c2.78-0.94,4.74-2.25,3.76-5.77
		c-4.55-16.27-4.1-33.02-4.26-49.65c-0.29-30.16-0.28-60.32-0.02-90.48c0.34-39.15,0.56-78.32,1.79-117.45
		c0.62-19.71,7.92-37.46,22.45-51.38c3.3-3.16,7.94-5.5,12.38-6.75c4.9-1.39,10.28-1.1,16.17-1.6c-6.18-3.53-11.83-6.66-17.38-9.94
		C52.43,180.05,26.22,164.52,0,149c0-2,0-4,0-6c2.93,1.91,5.79,3.93,8.79,5.7c20.5,12.04,40.94,24.17,61.57,36
		c29.81,17.09,57.7,37.43,89.09,51.87c8.84,4.07,16.76,10.11,25.19,15.11c6.53,3.87,13.19,7.5,19.96,11.34
		c2.31-10.54,1.55-12.39-6.68-17.39c-25.57-15.53-51.12-31.09-76.71-46.58c-14.23-8.62-28.7-16.85-42.76-25.74
		c-24.48-15.48-48.71-31.36-73.09-47C3.76,125.26,1.8,124.76,0,124c0-16.33,0-32.67,0-49c0.84,0.52,1.73,0.98,2.51,1.58
		C31,98.25,59.42,120.02,87.97,141.62c32.81,24.82,65.73,49.49,98.61,74.21c5.61,4.22,11.29,8.35,17.15,12.67
		c1.82-7.03,0.25-11.7-5.23-15.82c-23.83-17.9-47.47-36.07-71.02-54.33c-18.95-14.69-37.75-29.58-56.51-44.51
		C47.26,94.95,23.65,75.95,0,57c0-1.67,0-3.33,0-5c0.56,0.34,1.17,0.63,1.68,1.04c31.48,25.41,62.77,51.06,94.47,76.19
		c35.23,27.92,70.83,55.37,106.28,83c0.58,0.45,1.35,0.65,2.12,1.02c1.31-7.48,0.11-12.74-6.56-17.74
		c-22.79-17.06-45.37-34.46-67.08-52.85C92.93,110.47,55.67,77.43,18.06,44.81C12.18,39.71,6.03,34.93,0,30c0-1.67,0-3.33,0-5
		c1.48,1,3.1,1.85,4.43,3.02C28.9,49.31,53.24,70.74,77.79,91.94c24.53,21.19,49.07,42.36,73.95,63.14
		c15.82,13.21,32.25,25.69,48.41,38.49c1.35,1.07,2.7,2.12,4.06,3.18c0.59-0.33,1.17-0.65,1.76-0.98c-1.34-3.93-2.68-7.86-4.02-11.8
		c0.97-0.11,2.73-0.07,2.78-0.35c0.3-1.61,0.32-3.31,0.2-4.96c-0.41-5.94-1.19-11.86-1.29-17.8c-0.07-4.23-1.05-7.69-4.01-10.83
		c-13.02-13.79-25.69-27.92-38.9-41.53c-14.94-15.38-30.48-30.18-45.46-45.51C102,49.43,89.06,35.55,76.14,21.67
		C69.58,14.62,63.37,7.23,57,0c1,0,2,0,3,0c2.85,2.99,5.68,5.99,8.54,8.97c38.85,40.47,77.67,80.96,116.59,121.36
		c5.46,5.67,11.42,10.86,17.51,16.6c0.8-12.84,0-15.13-7.79-23.63C180,107.1,165.14,90.91,150.32,74.69
		c-7.4-8.1-14.81-16.21-22.07-24.43c-10.35-11.73-20.66-23.5-30.81-35.4C93.39,10.1,89.8,4.96,86,0c1.33,0,2.67,0,4,0
		c36.95,41.34,73.9,82.69,110.57,123.71c2.13-6.06,3.09-11.68,5.96-16.03c2.42-3.67,3.67-6.91,3.01-11.03
		c-0.9-5.58,0.54-10.54,3.7-15.12c1.34-1.94,2.55-3.97,4.65-7.27c-12.5,0-23.42,0-34.34,0c0.02-0.73,0.04-1.46,0.06-2.19
		c10.13,0,20.27,0.05,30.4-0.05c1.73-0.02,3.85-0.11,5.11-1.07c3.37-2.57,4.83-11.3,2.73-14.99C211.26,37.29,200.62,18.65,190,0
		c1.33,0,2.67,0,4,0c8.54,14.85,17.4,29.53,25.5,44.62c5.16,9.61,12.4,17.39,19.48,25.4l-0.19-0.18c0.27,3.37,2.15,4.16,5.38,4.15
		c12.75-0.06,25.62,0.62,36.37,8.36c7.03,5.06,13.04,11.53,20.25,18.04c0.32-1.37,1.16-3.03,0.92-4.52
		c-0.33-2.08-1.39-4.08-2.29-6.04c-9.6-21.19-19.34-42.32-28.81-63.57C266.78,17.63,263.52,8.76,260,0c1,0,2,0,3,0
		c5.64,12.96,11.34,25.9,16.91,38.89c3.93,9.18,7.88,18.35,11.46,27.67c2.04,5.3,5.53,7.49,11.02,7.15
		c4.48-0.27,8.98-0.52,13.47-0.53c27.15-0.03,54.29,0.07,81.44,0.03c57.12-0.09,114.24-0.32,171.37-0.25
		c5.03,0.01,6.44-1.94,7.27-6.33C580.16,44.39,584.62,22.2,589,0c1.33,0,2.67,0,4,0c-4.2,20.71-8.43,41.42-12.58,62.15
		c-2.12,10.55-4.1,21.13-6.24,32.15c2.59,0.28,5.01,0.55,7.42,0.81c1.35-2.35,3.06-4.72,4.85-4.78c10.11-0.37,20.24-0.18,30.94-0.18
		c-1.22,4.85-0.41,10.26-8.15,11.1c4.28,1.87,7.53,3.29,10.98,4.8c0.8-2.01,1.4-3.37,1.9-4.77c6.65-18.65,13.19-37.34,19.95-55.95
		C647.58,30.17,653.35,15.1,659,0c1.33,0,2.67,0,4,0c-13.03,35.39-26.07,70.79-38.9,105.63c28.53,14.49,56,29.13,72.79,58.2
		c3.99-4.58,7.78-9.2,11.85-13.55c10.11-10.83,20.71-21.22,30.47-32.35c28.44-32.43,56.58-65.12,84.79-97.74
		C829.75,13.54,835.34,6.74,841,0c2,0,4,0,6,0c-6.52,7.1-13.23,14.03-19.53,21.32c-20.44,23.69-40.52,47.7-61.14,71.24
		c-20.74,23.67-41.78,47.09-63.1,70.24c-4.93,5.36-6.16,10.31-3.05,17.33C756.59,119.95,812.79,59.97,869,0c1,0,2,0,3,0
		c-24.07,26.74-47.82,53.79-72.3,80.14c-31.74,34.17-64.1,67.78-96.1,101.71c-1.64,1.73-3.3,4.09-3.58,6.33
		c-1.09,8.68-1.62,17.43-2.41,26.8c6.12-5.96,11.78-12.03,18.03-17.38c5.37-4.6,11.32-8.58,17.25-12.46
		c2.98-1.95,6.88-2.57,9.72-4.66c4.81-3.54,9.19-7.69,13.63-11.72c24.6-22.32,49.1-44.74,73.74-67.02
		c16.56-14.97,33.46-29.57,49.89-44.68c14.21-13.06,28-26.58,41.91-39.97C927.6,11.49,933.26,5.7,939,0c2,0,4,0,6,0
		c-0.89,0.98-1.72,2.02-2.68,2.92c-16.41,15.36-32.73,30.81-49.27,46.03c-28.8,26.49-57.65,52.93-86.67,79.19
		c-18.64,16.88-37.62,33.38-56.43,50.08c-4.69,4.16-9.43,8.28-13.89,12.68c-4.97,4.9-9.36,10.42-14.53,15.08
		c-10.14,9.14-20.67,17.83-30.95,26.81c-1.69,1.48-2.92,3.49-4.36,5.26c0.34,0.31,0.67,0.61,1.01,0.92
		c21.64-17.47,43.57-34.58,64.84-52.48c34.78-29.26,69.33-58.79,103.59-88.66c30.88-26.92,61.29-54.38,91.77-81.76
		C952.96,11.09,957.83,5.37,963,0c2,0,4,0,6,0c-0.52,0.81-0.89,1.77-1.57,2.39c-14.95,13.76-29.88,27.55-44.93,41.2
		c-19.5,17.67-38.87,35.5-58.75,52.74c-18.62,16.15-37.77,31.67-56.78,47.37c-36.21,29.9-72.44,59.76-108.75,89.54
		c-11.28,9.25-22.82,18.18-34.13,27.17c0.88,2.1,1.27,3.19,1.77,4.22c0.54,1.1,1.18,2.16,1.45,2.64
		c21.34-15.95,42.6-31.42,63.41-47.48c30.45-23.5,60.92-47,90.78-71.24c53.53-43.47,106.65-87.45,159.84-131.33
		C987.86,11.83,993.79,5.75,1000,0c1.67,0,3.33,0,5,0c-2.58,2.9-4.87,6.16-7.8,8.66c-21.3,18.14-42.45,36.47-64.19,54.07
		c-40.11,32.49-80.38,64.8-120.97,96.67c-40.47,31.77-81.44,62.9-122.14,94.36c-7.47,5.78-14.75,11.8-22.53,18.04
		c1.76,2.01,2.98,3.4,4.28,4.87c3.27-2.7,5.98-5.16,8.92-7.31c41.21-30.23,82.68-60.11,123.62-90.7
		c37.75-28.2,75.07-56.98,112.33-85.82c34.77-26.91,69.2-54.25,103.79-81.39c1.16-0.91,2.46-1.64,3.69-2.46c0,19,0,38,0,57
		c-8.89,5.81-17.86,11.51-26.67,17.44c-46.27,31.13-92.17,62.83-138.84,93.34c-39.81,26.03-80.48,50.76-120.8,76.02
		c-20.16,12.64-40.4,25.17-60.54,37.83c-0.94,0.59-1.35,2.04-2.35,3.62c3.48-0.18,6.13-0.97,8.32-0.29
		c4.77,1.48,8.32,0.09,11.66-3.16c1.17-1.14,2.67-1.99,4.11-2.81c14-8.01,28.08-15.88,42.01-24c23.43-13.67,46.91-27.25,70.11-41.31
		c30-18.17,59.84-36.63,89.58-55.23c23.15-14.48,46.12-29.25,69-44.15c18.27-11.9,36.28-24.19,54.41-36.3c0,2.67,0,5.33,0,8
		c-2.97,1.36-6.15,2.4-8.88,4.14c-31.44,20.07-62.79,40.28-94.21,60.37c-7.21,4.61-14.61,8.94-21.1,12.89
		c7.69,2.89,16.44,4.45,23.14,9.02c19.41,13.24,27.13,34.09,29.75,55.98c2.3,19.24,0.97,38.92,1.03,58.41
		c0.2,62.64,0.45,125.28,0.36,187.93c-0.05,31.09,2.52,62.31-3.55,93.21c-0.26,1.33,1.53,3.93,2.98,4.58
		c6.51,2.94,13.22,5.49,19.91,8.01c6.9,2.59,13.87,4.99,21.42,7.7c-0.47-5.98-1.16-10.92-1.2-15.87
		c-0.49-58.8-0.91-117.61-1.28-176.41c-0.24-39.47-0.42-78.94-0.52-118.42c-0.06-23.32-0.76-46.68,0.37-69.94
		c1.39-28.5,11.67-53.79,31.78-74.6c0,1.67,0,3.33,0,5c-1.59,1.69-3.34,3.26-4.75,5.09c-16.39,21.36-24.63,45.47-24.33,72.46
		c0.61,54.48,1.32,108.97,1.69,163.45c0.42,61.49,0.47,122.98,0.77,184.46c0.08,15.24,1.83,30.18,7.79,44.5
		c5.36,12.89,5.05,13.02,18.83,14.04c0,1,0,2,0,3c-11,0.11-22,0.6-32.98,0.28c-37.29-1.11-74.57-2.98-111.87-3.62
		c-20.1-0.34-40.24,1.18-60.36,2c-2,0.08-3.97,1.18-5.95,1.81c0.13,0.68,0.26,1.36,0.39,2.04c2.36,0,4.73,0.03,7.09,0
		c30.47-0.45,60.95-1.47,91.42-1.17c21.46,0.21,42.89,2.74,64.36,3.21c15.95,0.35,31.93-0.96,47.9-1.53c0,2,0,4,0,6
		c-69.39,0-138.79,0-208.75,0c0.52,2.42,0.58,3.42,0.94,4.3c9.45,22.92,18.63,45.96,28.5,68.7c8.54,19.68,17.69,39.11,26.99,58.46
		c2.62,5.46,6.65,10.26,10.09,15.32c4.28,6.29,8.87,12.4,12.8,18.9c1.11,1.84,0.95,4.91,0.42,7.2c-2.38,10.35-5,20.65-7.79,30.9
		c-0.68,2.48-1.92,5.09-3.64,6.95c-3.58,3.86-4.88,8.14-4.25,13.26c0.48,3.96,0.5,7.97,1.08,11.91c1.7,11.49-1.96,18.25-12.52,23.16
		c-2.5,1.16-4.69,2.97-7.48,4.77c1.36,0.77,1.63,1.05,1.89,1.05c33.12-1.07,66.23-2.04,99.34-3.31c14.55-0.56,25-7.21,29.45-21.73
		c0.44-1.43,1.14-2.82,1.33-4.28c0.52-3.97,2.75-4.27,6.33-4.17c8.41,0.25,16.85-0.22,25.27-0.4c0,50,0,100,0,150c-3,0-6,0-9,0
		c-1-1.29-1.91-2.67-3.03-3.85c-17.21-18.3-34.42-36.59-51.69-54.82c-3.31-3.5-6.75-6.91-10.41-10.04c-1.1-0.94-3.3-1.4-4.73-1.04
		c-5.46,1.4-10.9,2.97-16.15,5.01c-1.99,0.77-3.88,2.69-5.02,4.56c-4.04,6.6-7.33,13.7-11.74,20.03c-2.12,3.05-2.65,5.05-0.33,7.74
		c6.09,7.05,12.25,14.04,18.26,21.16c3.07,3.64,5.89,7.49,8.83,11.25c-1.67,0-3.33,0-5,0c-1.87-2.52-3.6-5.15-5.64-7.52
		c-6.52-7.56-13.29-14.9-19.67-22.56c-2.34-2.81-4.28-4.28-8.24-3.14c-3.77,1.08-7.89,1.18-11.86,1.24
		c-9.57,0.16-19.15,0.05-28.73,0.05c-0.19,0.36-0.38,0.73-0.56,1.09c10.52,8.19,17.04,19.21,22.71,30.84c-17.67,0-35.33,0-53,0
		c-5.33-0.29-10.67-4.99-16,0c-6.33,0-12.67,0-19,0c-5.27-2.99-10.54-5.97-15.65-8.87c2.01,3.16,3.83,6.01,5.65,8.87
		c-32,0-64,0-96,0c-33.21-15.01-66.72-13.71-100.44-0.58c-0.14-0.88-0.27-1.77-0.41-2.65c21.11-14.56,45.52-18.08,70.89-19.55
		c-6.15-3.28-12.17-6.56-18.55-7.56c-16.09-2.52-32.33-4.05-48.52-5.89c-4.55-0.52-11.3,6.91-10.75,11.44
		c1,8.26,1.86,16.53,2.78,24.8c-1,0-2,0-3,0c-1.3-8.46-2.6-16.93-3.93-25.57c-5.95,1.03-11.21,1.94-16.81,2.91
		c2.06,8.42,0.29,15.69-3.26,22.66c-0.67,0-1.33,0-2,0c0.71-2.9,1.32-5.84,2.14-8.71c0.95-3.29-0.2-5.58-3.17-6.95
		c-7.12-3.3-14.07-7.11-21.46-9.6c-11.14-3.75-22.57-6.62-33.92-9.74c-25.27-6.96-49.28-5.04-71.54,10
		c-4.18,2.82-6.27,6.46-7.12,11.59c2.15-0.63,3.86-1.2,5.61-1.64c10.94-2.79,21.75-5.68,33.34-5.15
		c18.64,0.85,35.88,6.63,52.89,13.44c4.57,1.83,8.82,4.48,13.22,6.76c-7,0-14,0-21,0c-3.93-1.91-7.71-4.26-11.81-5.65
		c-23.47-7.94-47.29-10.14-71.43-3.25c-5.36,1.53-10.87,3.31-13.76,8.9c-35.67,0-71.33,0-107,0c-0.79-4.65-3.59-7.53-8.19-7.99
		c-4.62-0.47-3.61,4.33-5.36,6.58c-0.29,0.37-0.31,0.94-0.45,1.41c-16,0-32,0-48,0c2.86-11.36,8.45-21.38,16.23-30.94
		c-7.21,0-13.38,0.24-19.52-0.07c-6.47-0.33-12.13-2.8-15.33-8.77c-2.5-4.67-5.1-9.48-6.38-14.55c-1.44-5.68-4.28-9.02-9.57-11.51
		c-12.12-5.71-20.62-14.98-27.05-26.97c-7.97-14.87-9.31-30.96-9.98-46.94c-1.1-26.08,3.59-51.78,8.09-77.39
		c1.97-11.24,3.84-22.49,5.97-34.95c-3.14,2.62-5.53,4.37-7.62,6.42c-10.11,9.91-20.16,19.89-30.2,29.87
		C97.9,851.63,54.2,895.09,10.37,938.44C7.37,941.41,3.48,943.5,0,946c0-1.33,0-2.67,0-4c9-8.17,18.27-16.06,26.94-24.57
		c37.94-37.21,75.83-74.49,113.49-111.99c14.11-14.04,27.59-28.72,41.24-43.21c1.53-1.62,3.29-3.89,3.35-5.91
		c0.32-11.36,0.16-22.73,0.16-32.95C123.82,776.26,61.91,829.63,0,883z M229.64,885.71c0,2.48,0,4.95,0,8.09
		c1.8-1.69,2.72-2.56,3.65-3.43c-1.64,3.76-1.16,7.2,1.28,10.32c1.53-1.11,2.88-2.09,4.24-3.07c-3.34,4.22-1.51,7.98,1.54,11.08
		c4.03,4.1,8.52,7.75,13.34,12.07c0.83-4.96,1.45-8.7,2.08-12.43c1.89-1.2,3.9-2.47,7.04-4.46c-3.75-2-6.35-4.33-9.13-4.59
		c-2.62-0.24-5.44,1.72-7.85,2.6c1.56-1.9,3.44-4.18,5.26-6.39c-3.66-4.92-6.47-4.98-10.07-0.45c-0.62-0.15-1.23-0.3-2.89-0.7
		c3.01-1.92,5.28-3.36,8.98-5.72c-3.16-1.13-5.39-1.92-7.62-2.72c1.23-4.62-0.41-6.1-5.46-4.94c0.04-0.96,0.31-2.69,0.07-2.76
		c-1.44-0.44-3.19-1.03-4.45-0.55c-1.27,0.48-3.06,2.31-2.89,3.26C227.03,882.63,228.6,884.13,229.64,885.71z M293.95,779.91
		c5.02,7.57,11.88,12.7,21.12,15.62c-2.72-2.07-2.84-3.78-0.7-4.51c-4.81-3.37-9.78-6.85-14.76-10.33c-2-1.77-4-3.55-6.01-5.32
		c-0.35,0.23-0.7,0.46-1.05,0.69C293.02,777.34,293.49,778.63,293.95,779.91z M385.01,853.98c0.35,1.01,0.69,2.02,1.04,3.03
		c-1.47,0.91-2.93,1.81-4.4,2.72c2.69-6.23-4.58-5.96-5.88-9.88c-4.27,5.96-8.39,11.38-12.12,17.05c-1.53,2.32-2.23,5.18-3.33,7.86
		c-0.54,0.3-1.85,0.71-2.71,1.57c-2.95,2.91-5.46,6.34-8.69,8.87c-2.81,2.2-3.08,4.34-1.81,7.21c-1.08-1.56-2.16-3.12-3.22-4.66
		c-2.67,2.49-5.49,4.95-8.1,7.61c-2.41,2.46-7.02,3.67-5.41,9.01c3.82-1.57,7.43-3.05,11.04-4.53c-2.72,1.74-5.58,3.3-8.09,5.31
		c-1.07,0.86-1.4,2.64-2.07,4.01c-1.36-2.04-2.89-2.75-5.21-1.2c-1.73,1.16-3.75,1.89-5.63,2.82c1.5-1.25,2.81-3,4.53-3.65
		c4.06-1.52,3.98-4.32,3.45-7.87c-3.55,1.61-6.93,2.71-9.79,4.61c-1.56,1.03-2.31,3.37-3.16,5.24c-0.08,0.18,1.73,1.21,2.66,1.85
		c-4.41,3.29,0.22,5.77,0.77,8.61c-1.71-2.05-3.41-4.09-5.87-7.04c-1.29,1.49-2.61,3-3.92,4.52c-1.03-0.54-2.16-1.68-3.08-1.52
		c-5.86,0.99-11.67,2.27-17.49,3.45c-0.85,6.86-0.85,6.85,5.51,7.52c0.55,0.06,1.15,0.34,1.6,0.68c4.47,3.36,11.35,3.49,16.47,0.36
		c-0.42-2.15-0.83-4.23-1.24-6.31c2.12,3.55,5.21,2.01,8.1,1.54c2.26-0.23,4.53-0.39,6.78-0.7c8.22-1.14,8.22-1.15,7.3-9.02
		c1.47,1.79,2.94,3.58,4.56,5.56c9.55-2.66,19.81-10.74,19.3-15.12c4.96-0.62,8.37-3.35,10.86-7.47c3.43-3.93,6.86-7.86,10.28-11.8
		c5.23-7.64,10.47-15.29,14.07-20.55c-0.73-2.38-1.2-3.9-1.67-5.42c1.54-0.26,3.87,0.02,4.47-0.87c2.26-3.33,3.96-7.05,6.25-11.33
		c-1.89,0.37-2.8,0.55-3.72,0.73c2.59-2.7,5.17-5.4,8.12-8.48c-2.89-1.02-4.55-1.61-6.21-2.2c7.11-0.51,8.81-2.76,10.29-14.79
		c-4.06,0.41-7.92,0.79-11.78,1.18c-1.19-5.24-6.23-2.38-9.19-5.07c-0.72,2.36-1.46,4.04-1.68,5.78c-0.23,1.78-0.61,4.7,0.24,5.22
		c2.25,1.39,4.84,4.06,7.93,1.26c-0.34,2.02-0.99,3.37-3.51,2.33c-2.07-0.85-4.27-1.36-6.96-2.19c-0.09,4.49-5.76,7.91-0.89,12.51
		c-3.17-0.45-7.24,3.43-6.87,6.55C377.31,852.07,382.22,855.19,385.01,853.98z M448.94,475.85c-1.67-3.31-3.4-6.59-5-9.92
		c-1.05-2.19-1.49-4.95-5.11-3.59c-3.41,1.28-5.06,3.99-3.16,6.8c3.08,4.56,6.9,8.69,10.87,12.54c1.14,1.1,3.83,0.6,6.05,0.86
		c-1.63-2.92-2.72-4.89-3.81-6.84c2.96,1.7,5.24,7.11,9.38,2.1c-3.03-7.28-5.95-14.27-8.92-21.41c-4.17,1.67-5.81,4.17-4.31,8.28
		C446.27,468.39,447.6,472.12,448.94,475.85z M650.13,462.73c-0.25,2.15-1.49,5.42-0.56,6.25c2.84,2.55,5.59,0.2,7.46-2.07
		c2.39-2.89,4.73-5.99,6.29-9.37c2.32-5.05,1.24-6.63-4.34-8.37c-1.8,2.93-3.59,5.84-5.38,8.76c0.86-2.13,2.06-4.19,2.46-6.4
		c0.28-1.57-0.51-3.33-0.83-5c-1.74,0.67-4,0.87-5.1,2.11c-1.93,2.16-3.14,4.95-4.65,7.48c1.11-2.94,2.47-5.83,3.22-8.86
		c0.34-1.38-0.51-3.06-0.82-4.61c-1.63,0.6-3.9,0.73-4.76,1.9c-1.79,2.43-2.83,5.41-4.18,8.17c-0.25-0.11-0.5-0.22-0.76-0.34
		c1.53-3.71,3.07-7.43,4.5-10.9c-2.79-0.77-5.42-1.49-7.03-1.93c-2.2,4.78-4.1,9.42-6.43,13.83c-1.8,3.42-2.51,6.06,2.45,7.29
		c1.47-1.25,3.04-2.58,3.99-3.4c0.87,1.95,1.71,3.84,2.79,6.24c1.72-1.5,3.05-2.67,4.38-3.82c-0.53,1.34-1.06,2.67-1.46,3.71
		C644.84,467.48,647.34,463.89,650.13,462.73z M688.17,501.95c-0.95,0.52-1.9,1.04-2.85,1.57c0.34,0.42,0.67,0.84,1.01,1.25
		c2.47-0.91,4.94-1.82,7.4-2.74c0.09,0.23,0.19,0.46,0.28,0.69c-2.54,1.48-5.07,2.97-8.72,5.1c2.29,1.19,4.34,3.03,5.19,2.58
		c5.24-2.77,10.4-5.79,15.08-9.39c0.91-0.7-0.23-4.38-0.94-6.51c-0.12-0.35-3.12-0.24-4.42,0.41c-2.66,1.33-5.07,3.16-7.58,4.78
		c1.73-1.71,3.32-3.6,5.22-5.08c5.66-4.4,5.75-5.42,0.19-10.45c-2.53,2.29-5.43,4.32-7.52,6.98c-1.93,2.46-4.23,3.02-6.95,3.18
		c3.85-3.61,7.68-7.22,11.54-10.81c2.9-2.71,0.25-4.34-1.21-6.15c-1.6-1.98-2.94-1.81-4.8,0.11c-4.51,4.68-9.32,9.07-15.15,14.67
		c3.9,0.82,6.84,1.44,9.81,2.03c-0.34,1.99-0.68,3.98-1.21,7.05C684.05,501.42,686.11,501.68,688.17,501.95z M700.54,577.22
		c-1.23-0.34-2.46-0.68-2.95-0.82c-0.7,2.23-1.32,4.19-1.85,5.87c3.36,6.01,9.26,1.79,15.09,3.39c-1.9,0.31-2.68,0.22-3.17,0.55
		c-1.2,0.84-2.28,1.87-3.4,2.82c1.3,0.71,2.56,1.92,3.91,2.03c5.91,0.49,8.88-2.53,9.62-9.88c-6.04,2.18-11.36,1.02-15.94-3.25
		c1.84,0.68,3.7,1.32,5.53,2.05c7.59,3.06,12.82-0.64,12.27-8.03c-7.02-1-13.9-1.97-21.99-3.12
		C698.67,571.77,699.6,574.49,700.54,577.22z M694.45,618.12c9.01,2.03,8.1,2.16,12.09-6.59c-3.83-1.55-9.45,1.12-11.52-4.55
		c10.42,5.72,14.01,4.45,15.55-4.63c-6.57-2.48-12.97-4.89-19.47-7.35c-3.9,3.84-1.7,7.06,2.12,10.05c0.76,0.59,1.34,1.4,2,2.11
		c-2.24-1.55-4.49-3.1-7.47-5.16c-0.77,3.99-1.47,7.65-2.18,11.31c-4.67,5.35-5.01,8.87-1.16,11.95c-1.45,0.29-3.73,0.1-4.21,0.94
		c-1.96,3.43-3.76,7.06-4.88,10.84c-1.15,3.86,0.84,7.12,4.58,8.14c2.76,0.75,7.11,1.27,8.62-0.24c2.7-2.69,4.03-6.91,5.42-10.68
		c0.46-1.24-0.17-3.73-1.17-4.49c-1.98-1.49-4.57-2.15-6.9-3.16c-0.15,0.38-0.31,0.75-0.46,1.13c-0.39-0.88-0.79-1.75-1.2-2.64
		c1.67,0.01,3.82-0.65,4.93,0.15c6.11,4.37,10.9,2.67,12.89-4.5C699.47,619.86,696.96,618.99,694.45,618.12z M678.98,474.99
		c-3.05,3.76-6.1,7.51-9.15,11.26c4.03,2.98,4.03,2.98,20.22-11.81c-1.71-2.13-3.43-4.27-5.17-6.44c-2.16,2.55-4.13,4.86-6.09,7.17
		c1.43-2.72,2.85-5.44,4.47-8.51c-2.06-1.95-4.13-3.9-5.65-5.35c-5.11,6.05-9.78,11.58-14.44,17.11c5.29,5.78,6.32,5.77,11.85,0.07
		C676.25,477.25,677.65,476.16,678.98,474.99z M402.78,506.79c4.5,2.03,8.91,4.29,13.52,6.05c5.43,2.08,6.38,1.42,8-3.49
		c-6.78-4.62-13.33-9.09-19.97-13.62c-5.25,6.22-5.25,6.22-1.35,11.26c-1.48-0.62-2.96-1.24-4.46-1.86
		c-2.81,3.13-3.11,5.69,0.98,8.28c2.24,1.41,3.82,3.86,5.7,5.84c-3.08-2.08-6.17-4.16-9.23-6.22c-3.15,3.68-0.74,6.18,1.3,8.97
		c-1.25-0.62-2.5-1.24-3.78-1.88c-2.52,7.02-1.84,8.51,4.81,10.89c7.73,2.77,10.73,2.3,16.46-3.04c1.45-1.36,2.42-3.23,3.29-4.43
		c-4.88-1.68-8.96-3.08-13.04-4.49c3.04,0.6,6.06,1.31,9.11,1.78c3.77,0.58,6.33-0.76,6.76-3.8
		C414.53,513.44,408.65,510.12,402.78,506.79z M375.21,334.98c3.44-1.37,0.89-2.93-0.08-3.98c-4.55-4.92-9.39-9.58-13.88-14.56
		c-4.84-5.38-9.39-11.01-14.59-17.14c-1.6,7.55,0.13,12.11,5.67,16.06c6.56,4.68,12.26,10.56,18.33,15.92
		c-1.59-0.84-3.36-1.46-4.74-2.56c-6.43-5.16-12.75-10.45-19.11-15.7c-0.39,0.43-0.77,0.87-1.16,1.3
		c6.42,13.15,21.85,16.49,30.3,27.43c0.45-0.32,0.91-0.64,1.36-0.96C376.62,338.85,375.91,336.91,375.21,334.98z M283.09,577.52
		c-3.84-1.94-7.1-1.15-10.6,1.33c-6.23,4.41-12.8,8.32-19.23,12.44c8.33,0.44,16.28-0.01,24.22-0.69c4.29-0.37,7.86-9.4,5.36-13.19
		c4.86,0.26,4.67-3.47,6.13-7.59c-2.63,1.53-4.13,2.44-5.67,3.29C280.79,574.48,281.05,575.94,283.09,577.52z M587.15,946.33
		c-0.03-0.39-0.05-0.79-0.08-1.18c-0.35-0.74-0.69-1.49-1.05-2.23c-8.59-17.56-27.34-23.87-44.02-14.42
		c-4.52,2.56-8.34,6.38-12.3,9.48c0.94-8.04,10.54-13.34,30.3-16.41c-15.84-1.48-27.25,4.43-33.73,17.46
		c-8.43,16.97-8.65,29.42-0.14,38.52c-0.33-1.34-0.51-2.04-0.68-2.73l-0.01,0.01c2.34,3.43,4.68,6.86,7.02,10.29
		c0.15-0.15,0.3-0.29,0.45-0.44c-2.1-5.23-4.21-10.45-6.31-15.68c0.5-0.21,1.01-0.41,1.51-0.62c1.99,4.07,3.6,8.4,6.11,12.12
		c1.75,2.59,4.76,4.35,7.2,6.47c1.16,1.51,2,3.59,3.52,4.46c20.69,11.74,44.91-0.48,47.56-24.24
		C593.3,959.88,592.8,952.29,587.15,946.33z M710.65,521.3c4.15-2.83,4.24-6.06,1.24-9.57c-5.9,3.13-11.65,6.08-17.26,9.26
		c-0.83,0.47-1.65,2.18-1.4,2.99c0.29,0.95,1.84,2.24,2.7,2.15c2.26-0.25,4.47-1.1,6.65-1.86c2.77-0.96,5.48-2.06,8.22-3.1
		c-4.71,2.51-9.42,5.02-14.13,7.53c0.56,1.71,1.34,3.29,1.57,4.95c0.53,3.92,0.27,8.02,1.28,11.79c1.43,5.34,6.63,2.73,10.08,3.88
		c0.47,0.16,1.04,0.54,1.41,0.41c2.88-1.09,6.3-1.67,8.35-3.66c1.21-1.17,0.22-4.61,0.22-7.2c-5.01,1.38-9.06,2.5-13.11,3.61
		c-0.15-0.61-0.3-1.21-0.45-1.82c2.67-0.48,5.35-0.93,8.02-1.44c2.84-0.54,5.14-1.13,3.58-5.16c-1.1-2.82-1.27-6.04-1.58-9.1
		C715.66,521.4,713.82,520.45,710.65,521.3z M413.44,482.29c4.99,4.49,9.77,9.24,15.04,13.37c3.48,2.72,6.81,1.91,8.46-2.59
		c-3.3-3.33-6.58-6.63-9.86-9.94c11.32,9.13,13.96,9.37,20.26,0.94c-7.45-3.91-12.12-10.14-14.65-18.73
		C425.99,471.24,419.71,476.77,413.44,482.29c-2.39,3.47-4.78,6.93-7.94,11.5c4.73,3.8,8.93,8.06,13.93,10.96
		c6.43,3.74,8.93,2.36,11.91-4.85c-3.11-2.15-6.64-3.92-9.27-6.58C418.8,490.02,416.28,486,413.44,482.29z M327.92,285.82
		c0.49,0.09,0.99,0.3,1.46,0.25c2.41-0.27,5.74,0.26,7.01-1.11c2.45-2.65-0.16-5.02-2.2-7.11c-7.56-7.75-14.83-15.78-22.62-23.29
		c-6.03-5.81-12.66-11-20-17.31c-1.68,5.45-3.04,9.48-4.15,13.57c-1.87,6.91-1.64,7.18,5.22,8.51c3.11,0.6,6.18,1.46,9.31,1.82
		c1.47,0.16,3.03-0.6,3.65-0.74c2.49,3.22,4.7,6.46,7.3,9.36c4.95,5.52,10.11,10.83,15.19,16.24c-0.91-0.22-1.82-0.45-2.69-0.66
		c-0.12,2.13-0.25,4.25-0.35,6.07c3.59,2.69,7.03,5.26,11.11,8.32c0-3.7,0-6.37,0-9.04c-3,0-5.57,0-7.33,0
		C328.44,288.62,328.18,287.22,327.92,285.82z M340.77,204.48c0.78,1.01,1.56,2.01,2.33,3.02c0.23-0.15,0.46-0.3,0.69-0.45
		c-12.78-27.41-25.57-54.82-38.1-81.7c-4.02,1.32-8.94,2.93-13.84,4.54c1.88,4.85,3.78,10.15,5.99,15.32
		c1.54,3.59,3.89,6.13,8.41,4.25c1.52-0.63,3.17-0.97,4.77-1.44c-1.45,1.47-3.12,2.17-4.83,2.73c-1.66,0.54-3.36,0.93-5.04,1.39
		c0.09,0.37,0.18,0.73,0.28,1.1c1.4,0,2.79,0,3.85,0c-0.75,0.78-1.5,1.57-2.25,2.36c1.16,0.88,2.28,2.45,3.48,2.51
		c3.5,0.18,7.04-0.25,10.56-0.44c0.04,0.4,0.07,0.81,0.11,1.21c-1.79,0.09-3.58,0.13-5.36,0.27c-1.72,0.14-3.43,0.37-5.14,0.56
		c0.05,0.39,0.09,0.78,0.14,1.17c3.97,0.17,7.93,0.35,11.9,0.52c-0.01,0.33-0.02,0.66-0.03,1c-3.62,0-7.25,0-11.7,0
		c4.29,5.44,9.78,0.97,13.86,3.9c-3.35,0.34-6.71,0.68-10.09,1.03c3.95,11.62,4.22,10.96,14.33,7.21c-0.28-0.97-0.57-1.95-0.85-2.92
		c0.24-0.09,0.48-0.18,0.72-0.28c0.6,1.44,1.19,2.88,1.81,4.34c-3.4,0.92-6.8,1.84-10.2,2.76c0.06,0.58,0.13,1.15,0.19,1.73
		c3.57-0.33,7.14-0.65,10.99-1c-0.53-1.76-0.81-2.7-1.1-3.64c1.83,3.22,3.66,6.45,5.49,9.66c-3.99,0-7.99,0-12.1,0
		c3.63,11.98,5.43,13.3,15.49,10.62c-2.69-0.38-5.37-0.76-9.43-1.33c3.64-0.32,5.88-0.52,8.13-0.72c-0.02-0.52-0.04-1.05-0.05-1.57
		c-2.46-0.18-4.92-0.36-8.01-0.59c2.65-0.54,4.66-0.94,6.67-1.35c-0.06-0.37-0.12-0.74-0.18-1.12c-2.53-0.14-5.06-0.27-7.67-0.41
		c2.08-2.14,7.05,2.27,7.01-3.68c2.65,5.53,5.3,11.06,7.94,16.59c-4.08-3.18-8.76-3.73-15.08-3.68c5.1,5.51,2.62,15.33,13.1,15.07
		c-0.56,1.3-1.05,2.44-1.54,3.57c0.25,0.27,0.51,0.54,0.76,0.81c1.31-0.96,2.62-1.92,3.82-2.79c2.19,2.09,6.93,2.36,5.81,7.24
		c-2.11-0.47-4.21-1.09-6.34-1.38c-3.24-0.44-7.11,1.35-8.98-3.23c-9.52-23.31-21.69-45.23-34.18-67.05
		c-5.57-9.72-9.27-20.54-13.59-30.95c-1.81-4.36-6.27-7.48-10.84-7.24c2.86,6.14,5.67,12.53,8.77,18.77
		c12.8,25.78,25.7,51.5,38.52,77.27c0.71,1.43,1.07,3.04,1.6,4.57c-2.69-3.96-5.81-7.69-8.01-11.91
		c-7.54-14.45-14.82-29.04-22.06-43.64c-2.05-4.15-4.61-6-9.64-5.69c-9.44,0.57-18.94,0.17-28.41,0.17c-3.86,0-7.72,0-12.71,0
		c1.93,3.8,2.76,6.67,4.52,8.72c14.55,16.88,29.23,33.65,44.05,50.3c1.35,1.51,3.94,2.55,6.02,2.67c7.8,0.47,15.63,0.52,23.45,0.59
		c0.89,0.01,1.79-0.86,2.7-1.3c1.56,3.36,3.12,6.72,4.66,10.05c-2.5-1.95-4.85-5.3-7.52-5.58c-7.49-0.77-15.1-0.27-23.57-0.27
		c11.16,12.46,21.85,24.4,32.29,36.06c1.19-4.46,1.92-8.71,3.5-12.61c1.09-2.69,0.66-4.38-0.68-6.8c-1.87-3.37-2.79-7.27-4.12-10.94
		c1.34,2.83,2.48,5.79,4.11,8.44c0.86,1.41,2.53,3.21,3.89,3.25c5.21,0.17,10.45-0.3,16.28-0.56c-1.43-4.38-2.64-8.11-3.84-11.83
		c1.03,1.38,2.3,2.64,3.05,4.15c1.61,3.26,2.62,6.85,4.51,9.92c1.17,1.9,3.5,3.09,5.32,4.6c0.42-0.41,0.83-0.82,1.25-1.24
		c-5.38-9.75-10.77-19.5-16.15-29.25c-0.69,0.92-1.38,1.83-1.94,2.59C342.02,209.68,341.4,207.08,340.77,204.48z M318.97,355.05
		c0.48-0.96,0.95-1.91,1.44-2.9c-4.8-0.77-6.22,0.23-6.2,6.05c0.04,20.6,0.4,41.2,0.6,61.81c0.06,5.75,0.01,11.5,0.01,17.41
		c2.82,0.22,4.62,0.36,6.39,0.49c-1.33-5.63-3.36-10.57-3.51-15.57c-0.64-20.91-0.76-41.83-0.88-62.75
		c-0.01-1.57,1.51-3.14,2.32-4.71c-0.08,3.9-0.27,7.79-0.21,11.69c0.24,16.82,0.53,33.63,0.83,50.45
		c0.11,5.99,1.45,11.58,5.02,16.36c0.5-0.08,1-0.16,1.5-0.24c-0.54-23.12-1.08-46.24-1.62-69.35c0.37-0.01,0.74-0.01,1.12-0.02
		c0.88,22.69,1.76,45.38,2.65,68.33c4.53-3.51,5.26-6.25,3.92-15.73c-0.42,2.62-0.63,3.92-0.84,5.23c-0.21-0.02-0.42-0.05-0.62-0.07
		c1.83-19.45,3.65-38.91,5.48-58.36c-0.52-0.12-1.04-0.25-1.55-0.37c-0.81,1.46-1.61,2.91-2.42,4.37c-0.37-0.22-0.74-0.43-1.11-0.65
		c0.94-1.64,1.74-3.37,2.84-4.89c4.73-6.49,3.03-13.19-3.74-14.42c-2.44-0.44-5.13-1.28-6.14,2.22c-0.95,3.3,0.43,5.5,3.44,6.79
		c1.77,0.76,3.6,1.36,5.41,2.04c-2.08,0.62-3.98,0.48-5.75-0.08C324.5,357.27,321.76,356.1,318.97,355.05z M444.85,230.02
		c3.44-3.66,6.91-7.04,12.31-7.96c2.09-0.35,3.87-2.52,5.37-3.57c0.77,0.4,2.25,1.55,2.58,1.28c1.25-1.02,2.13-2.5,3.15-3.81
		c-0.36-0.32-0.72-0.64-1.08-0.96c-0.94,0.39-1.88,0.77-2.83,1.17c-0.41-2.03-0.8-3.92-1.19-5.83c-2.01,2.31-4.02,4.62-6.04,6.94
		c-0.4-0.24-0.79-0.48-1.19-0.72c2.13-4.09,4.26-8.18,6.39-12.29c-2.14-0.34-4.15-0.66-6.23-0.99c-3.2,5.92-1.37,13.6-7.37,18.21
		c5.85-16.78,9.09-34.78,23.17-48.13c-5.15-1.08-8.57,0.59-10.34,4.71c-6.74,15.71-13.37,31.47-19.79,47.32
		c-0.82,2.03-1.28,5.44,3.19,4.56c-9.57,8.23-13.82,13.31-14.65,16.31c9.04-4.89,18.8-11.38,29.44-15.67
		c16.58-6.68,34.49-6.94,52.13-7.83c34.52-1.72,68.93-0.1,103.18,4.32c5.96,0.77,11.75,2.88,19.05,4.74
		c-4.39-15.97-8.55-31.07-12.7-46.17c-0.55,0.11-1.1,0.22-1.65,0.34c-0.08,0.92-0.29,1.86-0.21,2.77c0.41,4.77,1.17,9.54,1.24,14.31
		c0.03,1.88-0.89,4.6-2.29,5.51c-4.14,2.69-8.73,4.68-14.1,7.42c4.14,1.78,6.96,2.99,9.78,4.19c-10.75-0.15-21.12-1.47-31.49-2.71
		c-27.89-3.35-55.82-3.71-83.76-0.62C480.33,218.91,462.06,222.3,444.85,230.02z M827.34,245.43c-2.17-0.2-4.35-0.39-6.52-0.59
		c-0.17-0.41-0.33-0.82-0.5-1.23c-2.96,3.15-6.1,6.15-8.84,9.48c-14.61,17.79-20.84,38.86-20.84,61.26c0,64.8,0.89,129.6,1.55,194.4
		c0.12,11.94,2.55,23.5,7.58,34.4c5.74,12.43,15.5,18.08,27.82,16.23c-0.23-0.21-0.44-0.47-0.71-0.62
		c-0.43-0.25-0.87-0.51-1.34-0.65c-13.72-4.12-21.46-14.2-24.38-27.33c-2.32-10.44-3.1-21.41-3.14-32.14
		c-0.22-54.48-0.11-108.95,0.18-163.43c0.1-18.12-0.2-36.41,2.05-54.32c2.03-16.13,10.74-29.22,26.94-35.63
		c23.31-12.09,46.64-24.14,69.92-36.29c10.56-5.51,18.3-4.13,25.05,5.66c4.1,5.94,7.16,12.6,10.83,19.21
		c-1.85-9.48-5.07-18.37-12.7-24.15c-5.53-4.19-11.95-9.16-19.99-4.88c-23.32,12.41-46.64,24.84-69.91,37.34
		C829.17,242.82,828.36,244.32,827.34,245.43z M292.34,265.94c-1.64-1.65-3.18-3.41-4.92-4.93c-15.81-13.8-31.67-27.53-47.45-41.36
		c-1.85-1.62-3.29-3.69-4.92-5.55c0.48-0.47,0.97-0.94,1.45-1.42c15.8,13.77,31.59,27.54,47.94,41.79
		c1.62-5.25,2.74-10.45,4.84-15.21c1.67-3.78,0.8-6.28-1.82-8.84c-3.34-3.27-6.63-6.6-9.92-9.92
		c-12.19-12.28-24.35-24.6-36.61-36.82c-1.89-1.88-4.23-3.29-7.34-5.66c0,3.75-0.01,6.06,0,8.37c0.09,14.82,0.49,29.65,0.13,44.45
		c-0.14,5.48,1.68,8.79,5.9,12.01c29.24,22.36,58.3,44.95,87.45,67.43c2.37,1.83,4.96,3.37,7.45,5.05c0.39-0.41,0.79-0.82,1.18-1.24
		c-1.21-1.56-2.2-3.4-3.67-4.65c-17.45-14.82-34.96-29.58-52.49-44.32c-13.77-11.57-27.6-23.06-41.36-34.64
		c-1.19-1-2.05-2.38-3.07-3.58c0.41-0.37,0.82-0.75,1.24-1.12c32.75,27.34,65.5,54.68,98.25,82.02c0.41-0.21,0.82-0.41,1.23-0.62
		c-1.05-2.29-1.62-5.06-3.26-6.78c-2.73-2.85-6.09-5.13-9.31-7.48c-2.71-1.98-4.74-4.13-3.89-7.81c3.64,1.92,3.58-0.77,3.31-2.93
		c-0.15-1.18-1.13-2.43-2.07-3.3c-4.72-4.39-9.06-9.51-14.52-12.68c-3.53-2.05-8.75-1.22-13.22-1.6
		C292.71,264.59,292.51,265.47,292.34,265.94z M469.46,427.52c-2.57,3.63-5.44,7.09-7.63,10.94c-2.65,4.65-0.29,10.01,4.69,11.98
		c8.27,3.27,16.63,4.8,25.33,1.68c0.47-0.17,1.1,0.12,1.65,0.2c-8.92,8.96-18.8,4.06-28.5,2.13c2.72,12.8,19.07,24.54,31.63,23.06
		c10.88-1.28,19.68-6.84,28.01-13.41c15.76-12.44,15.63-12.45,15.29-32.18c-0.08-4.4-2.26-6.43-5.32-9.18
		c-7.85-7.04-15.93-14.23-21.97-22.74c-6.07-8.54-2.81-15.5,6.89-19.21c12.77-4.88,25.73-4.65,38.77-1.06
		c13.44,3.7,13.6,16.01,7.4,23.43c-5.94,7.1-12.95,13.28-19.38,19.98c-1.16,1.2-2.41,2.87-2.54,4.42
		c-1.09,12.43-0.66,24.43,11.52,32.15c0.27,0.17,0.46,0.48,0.7,0.71c9.75,9.38,20.69,16.3,34.8,16.37
		c12.61,0.06,24.46-9.56,26.84-22c-9.13,1.76-18.26,6.1-27.1-0.38c1.54-0.48,3.09-0.4,4.62-0.5c5.77-0.36,11.67-0.16,17.29-1.32
		c8.41-1.74,8.43-2.33,7.26-11.09c-5.09,1.01-9.57,5.19-15.35,2.88c3.46-1.9,7.12-3.07,10.79-4.24c2.52-0.8,5.54-1.16,4.85-5
		c-0.66-3.67-3.68-3.02-6.24-3.44c-2-0.33-3.93-1.14-5.89-1.74c0.26-0.8,0.52-1.61,0.78-2.41c2.42,0.78,4.84,1.56,8.07,2.6
		c-0.94-3.08-1.19-6.4-2.82-8.79c-6.06-8.95-12.17-17.92-19-26.28c-10.62-13.02-25.67-17.77-41.5-20.89
		c-29.27-5.77-54.16,6.88-69.56,28.76c-4.78,6.79-8.95,14.02-13.31,21.1c-0.64,1.04-0.8,2.38-1.18,3.58L469.46,427.52z
		 M58.21,534.54c8.84,2.53,13.7,9.12,15.53,17.41c4.2,18.98,8.13,38.05,11.28,57.23c2.26,13.76,1.71,28.06,7.41,41.11
		c2.07,4.74,5.54,8.94,8.83,13.02c0.82,1.01,3.81,1.36,5.16,0.7c18.2-8.9,36.29-18.03,55-27.4c-8.93-8.61-10.74-18.89-10.78-29.85
		c-0.03-8.33-0.57-16.65-0.61-24.98c-0.1-22.27-4.67-43.85-9.5-65.68c0.46-0.21,1.18-0.63,1.95-0.88c0.39-0.13,0.89,0.06,2.63,0.22
		c2.46,16.59,5.51,33.28,7.24,50.09c1.41,13.72,0.99,27.63,1.9,41.42c0.42,6.4,1.75,12.81,3.31,19.05c1.04,4.16,3.67,5.64,8.24,3.22
		c11.04-5.84,22.28-11.31,33.57-16.65c3.39-1.6,4.29-3.68,4.33-7.29c0.31-36.63,0.83-73.25,1.24-109.88
		c0.02-1.54-0.45-3.09-0.75-5.02c-6.33,2.11-11.93,4.2-17.65,5.86c-22.86,6.65-45.81,13-68.62,19.8
		C97.98,522,78.2,528.39,58.4,534.61c-4.65,3.14-4.92,8.06-4.97,12.9c-0.15,14.83-0.28,29.66-0.17,44.49
		c0.17,20.96-0.84,41.96,2.81,62.81c3.96,22.58,23.85,43.19,45.17,43.79c26.46,0.74,52.96-0.24,79.44-0.6
		c1.1-0.02,2.94-1.19,3.15-2.11c1.32-5.94,2.29-11.96,3.39-18.05c-4.97,0-9.92-0.01-14.87,0c-23.99,0.08-47.98-0.02-71.97,0.33
		c-11.96,0.17-21.5-3.91-29.63-12.77c-7.26-7.91-10.66-17.47-13.93-27.24c-0.04-0.13,0.37-0.42,1.09-1.19
		c1.42,2.65,2.92,4.98,3.97,7.51c3.74,9.08,9.3,16.81,16.26,23.73c5.7,5.67,20.1,8.79,26.23,2.79c-9.6-6.5-15.09-15.87-17.9-26.77
		c-1.69-6.58-2.95-13.36-3.58-20.12c-2.23-23.75-5.42-47.31-12.11-70.28C68.54,546.11,64.96,539.29,58.21,534.54z M934.5,239.13
		c-41.33,16.41-81.41,32.28-121.41,48.36c-2,0.8-4.23,3.18-4.71,5.21c-1.86,7.88-4.32,15.92-4.31,23.9
		c0.09,63.8,0.6,127.59,1.25,191.39c0.08,7.76,1.35,15.59,2.83,23.24c2.26,11.68,9.43,19.07,20.53,23.79
		c13.8,5.87,27.89,6.87,42.52,6.06c4.54-0.25,9.31,0.56,13.73,1.77c7.05,1.93,13.91,4.57,20.82,6.98c7.63,2.66,15.24,5.41,23.3,8.28
		c1.09-2.92,2.58-5.47,2.94-8.17c1.75-13,4.08-26,4.54-39.07c0.76-21.46,0.32-42.97,0.24-64.46c-0.25-69.46-0.54-138.92-0.92-208.38
		C935.83,251.92,935,245.83,934.5,239.13z M603.9,919.78c-1.57-5.48-3.23-9.68-3.95-14.03c-2.37-14.27-4.61-28.56-6.43-42.9
		c-0.68-5.34-2.04-9.35-7.28-11.93c-2.84-1.39-5.11-4.24-7.2-6.79c-4.35-5.29-4.23-8.66-0.65-14.54c2.11-3.46,3.78-7.2,5.64-10.81
		c-7.54,4.53-14.07,9.64-14.07,19.42c-3.18-8.18,4.98-21.56,15.05-25.09c0.28,2.36,0.58,4.61,0.81,6.86
		c0.32,3.16,1.83,4.33,5.31,3.16c-0.26-3.77-0.43-7.41-0.79-11.03c-1.14-11.43-2.52-22.84-3.5-34.28
		c-1.79-20.91-3.21-41.85-5.15-62.75c-0.43-4.63-2.11-9.21-3.62-13.67c-4.83-14.27-3.05-20.74,8.32-26.56
		c7.62-3.9,15.99-6.56,24.27-8.9c4.31-1.22,5.87-2.66,5.8-7.26c-0.31-19.99-0.18-39.98-0.27-59.97c-0.01-3.08-0.38-6.17-0.63-9.87
		c-1.89,1.05-3,1.69-4.13,2.29c-6.16,3.27-12.26,6.66-18.51,9.74c-3.97,1.95-7.06,1-9.61-3.06c-3.36-5.34-7.53-10.17-11.04-15.42
		c-1.92-2.87-3.7-2.95-6.59-1.46c-5.88,3.02-11.96,5.65-18.44,8.67c0.61,4.28,1.42,9.01,1.96,13.78
		c3.34,29.62,6.94,59.22,9.79,88.89c1.67,17.39,2.15,34.89,3.04,52.35c0.1,1.88-0.58,3.79-0.91,5.69c-0.45-0.06-0.91-0.11-1.36-0.17
		c-0.89-12.41-1.78-24.83-2.68-37.24c-0.12,0.04-0.23,0.08-0.35,0.12c0,13.69,0,27.38,0,41.07c0.78,0.42,1.55,0.84,2.33,1.25
		c0.12-1.27,0.23-2.54,0.35-3.81c0.6,0.42,1.21,0.85,1.81,1.27c-0.67,1.6-0.93,3.66-2.09,4.72c-12.03,10.98-24.29,21.71-36.31,32.7
		c-3.7,3.38-6.85,2.59-9.86-0.43c-8.21-8.25-16.09-16.84-24.49-24.9c-6.6-6.33-6.66-13.84-4.96-21.73
		c4.69-21.81,9.55-43.58,14.46-65.34c3.95-17.52,7.94-35.04,12.15-52.5c3.08-12.77,6.83-25.39,9.74-38.19
		c1.63-7.2-0.7-9.87-8.17-11.57c-3.11,5.31-6.46,10.49-9.27,15.96c-5.05,9.81-11.38,10.31-17.95,1.54
		c-3.38-4.51-7.56-8.41-11.38-12.59c-0.63,0.26-1.27,0.52-1.9,0.78c-1.38,19.3-2.77,38.6-4.16,58.04
		c8.66-2.06,15.23,5.45,15.65,12.06c0.19,2.92,0.19,6.37-1.17,8.77c-4.8,8.51-10.16,16.71-15.47,24.92
		c-1.19,1.83-3.99,3.01-4.43,4.87c-2.41,10.24-3.67,20.35-0.52,31c3.38,11.43,6.06,23.28,7.1,35.12c1.35,15.22,0.7,30.62,1.06,45.94
		c0.07,3.12,0.09,6.57,1.36,9.29c8.41,18.1,17.15,36.06,25.81,54.05c1.3,2.7,2.72,5.36,4.08,8.03
		c-14.85-15.82-22.21-35.71-30.61-55.03c-6.25,35-2.42,70.92-13.78,105.81c7.79-1.51,14.73-3.23,21.77-4.05
		c3.15-0.37,6.52,1,9.77,1.71c3.92,0.85,7.97,3.02,11.7,2.53c11.21-1.45,22.36-3.58,33.4-6.07c15.71-3.54,31.23-4.63,46.86,0.38
		c4.25,1.36,8.76,2.34,13.2,2.58C596.53,921.4,600.34,920.28,603.9,919.78z M64.44,527.12c4.83-1.52,9.48-2.77,13.98-4.42
		c20.93-7.68,41.85-15.39,62.72-23.26c6.18-2.33,11.13-6.59,13.08-12.95c1.99-6.47,3.82-13.26,4.02-19.96
		c0.63-20.47,0.4-40.97,0.57-61.45c0.25-29.65,0.65-59.3,0.82-88.96c0.1-17.89-4.68-24.48-21.2-30.51
		c-15.79-5.77-31.53-11.7-47.33-17.46c-9.66-3.53-19.38-6.89-29.97-10.64c-0.77,3.82-1.74,6.97-1.97,10.17
		c-0.47,6.48-0.71,12.98-0.74,19.47c-0.18,42.15-0.3,84.3-0.41,126.46c-0.08,28.16-0.17,56.31-0.15,84.47
		C57.87,508.12,58.86,517.99,64.44,527.12z M466.31,587.56c-4.63,1.46-8.14,2.57-11.66,3.68c12.14-5.3,14.22-8.22,11.32-17.86
		c-15.07,7.39-31.26,8.27-47.55,8.49c7.07-1.01,14.19-1.71,21.24-2.84c6.94-1.12,14.04-1.99,20.66-6.26
		c-12.34-5.67-24.86-7.21-37.43-8.67c-4.66-0.54-8.44-0.19-11.62,4.09c-2.77,3.73-5.46,2.72-6.72-1.86c2.24-0.63,4.48-1.27,6.72-1.9
		c-5.37-0.6-10.59,0-15.63-0.71c-15.59-2.2-30.93-0.46-46.17,2.5c-5.21,1.01-10.16,3.33-15.23,5.05c0.11,0.5,0.22,1,0.32,1.5
		c4.69,1.55,9.37,3.1,14.06,4.65c-0.11,0.34-0.22,0.67-0.32,1.01c-6.85-1.97-13.7-3.93-20.55-5.9c0.06-0.67,0.11-1.34,0.17-2
		c16.15-11.06,35.33-10.38,53.62-12.76c0.2-3.45-1.57-4.35-4.37-3.98c-12.52,1.68-25.11,3-37.53,5.24
		c-4.76,0.86-9.3,3.53-13.63,5.94c-4.14,2.3-4.18,4.41-1.08,7.9c2.26,2.53,4.48,5.09,6.72,7.64c-0.09,0.13-0.18,0.25-0.27,0.38
		c-1.37-0.82-2.73-1.64-5.6-3.36c2.05,12.91,4.09,24.34,5.64,35.85c1.19,8.87,5.14,14.74,14.46,16.2c2.11,0.33,4.16,1.23,6.14,2.07
		c6.73,2.85,13.65,5.36,20.05,8.83c5.15,2.79,6.72,7.71,4.72,12.35c-2.2,5.1-5.73,9.77-12.48,8.34c-5.2-1.1-10.37-2.38-15.56-3.55
		c-4.3-0.97-8.61-1.88-12.83-2.8c-2.9,9.4-1.97,10.79,6.41,12.94c8.68,2.22,17.41,4.43,25.81,7.5c7.79,2.85,10.03,7.69,8.07,14.27
		c-1.8,6.06-8.63,10.39-15.27,9.43c-2.79-0.4-5.49-1.34-8.25-1.99c-6.15-1.45-12.27-3.11-18.5-4.16c-1.73-0.29-3.77,1.22-5.67,1.91
		c1.41,1.46,2.61,3.31,4.3,4.29c1.82,1.04,4.1,1.29,6.19,1.84c13.04,3.41,26.15,6.59,39.1,10.3c6.17,1.77,8.62,5.78,7.79,10.53
		c-1.24,7.04-6.89,12.65-12.75,12.42c-7.65-0.3-15.3-0.69-22.95-1.22c-3.33-0.23-5.03,0.99-5.2,4.36c-0.18,3.32,1.32,4.7,4.64,5.04
		c5.78,0.6,11.65,1.14,17.25,2.59c7.31,1.89,8.97,9.37,3.69,14.81c-1.37,1.41-2.93,2.65-4.51,4.06c1.98,5.53,5.84,8.48,11.42,9.25
		c17.15,2.36,34.19,1.86,51.16-1.69c9.77-2.05,15.75-7.91,17.31-17.63c3.71-23.15,7.42-46.3,10.47-69.54
		c2.8-21.29,4.8-42.69,7.01-64.05C464.54,609.43,465.33,598.74,466.31,587.56z M585.28,707.74c0.31,4,0.56,7.9,0.92,11.79
		c3.65,39.3,7.34,78.6,10.97,117.9c1.24,13.43,2.12,26.9,3.66,40.3c0.37,3.21,1.99,6.97,4.28,9.17
		c22.38,21.46,61.28,26.47,85.38,9.41c3.63-2.57,5.9-5.31,6.69-9.82c2.54-14.42,5.38-28.8,8.29-43.15c0.57-2.81,0.85-5.05-0.83-7.79
		c-3.43-5.57-2.32-10.76,2.47-15.22c1.45-1.35,3-2.59,4.34-3.75c-1.24-2.57-1.95-5.34-3.64-7.23c-2.48-2.77-3.24-5.85-1.55-8.67
		c1.78-2.97,4.36-5.79,7.24-7.71c3.31-2.22,5.16-4.71,5.89-8.63c3.45-18.5,7.14-36.95,10.69-55.42c0.78-4.04,1.34-8.12,2.1-12.75
		c-1.82,0.54-2.96,0.71-3.95,1.19c-14.76,7.1-30.43,11.06-46.66,12.03C647.65,731.41,614.75,728.21,585.28,707.74z M296.13,75.92
		c4.37,8.94,8.37,16.86,12.14,24.88c2.36,5.01,4.4,10.18,6.53,15.3c0.5,1.21,0.61,2.59,1.14,3.78c2.93,6.53,6.3,12.89,8.83,19.57
		c2.81,7.41,6.64,10.62,15.52,10.12c17.91-1.02,35.92-0.19,53.9,0.01c3.37,0.04,5.78-0.84,8.24-3.45
		c12.06-12.83,25.85-23.7,41.44-31.8c34.97-18.15,72.33-25.23,111.63-22.8c4.6,0.28,10.45,4.13,13.76-0.54
		c2.68-3.78,2.69-9.45,3.87-14.29c0.03-0.12-0.1-0.28-0.31-0.77C481.27,75.92,389.56,75.92,296.13,75.92z M757.66,312.92
		c-12.93,4.73-24.88,9.31-37,13.4c-3.65,1.23-4.49,2.84-4.74,6.58c-0.88,13.25-2.12,26.49-3.79,39.66
		c-0.95,7.5-4.3,14.85-4.35,22.28c-0.2,28.15,0.76,56.3,0.77,84.45c0,11.27,1.43,21.83,7.78,31.41c1.26,1.9,1.65,4.36,2.74,6.4
		c0.71,1.33,1.76,2.79,3.04,3.45c6.52,3.32,13.19,6.34,19.77,9.56c4.98,2.44,6.32,2.13,9.15-2.84c4.63-8.12,7.11-16.8,7.1-26.21
		c-0.07-60.31-0.1-120.63-0.15-180.94C757.97,317.98,757.8,315.85,757.66,312.92z M906.44,626.38c4.1-0.88,8.46-0.63,11.13-2.63
		c5.36-4.03,11.05-8.53,14.37-14.16c12.08-20.49,17.55-43.2,17.87-66.8c0.52-37.82,0.11-75.66-0.01-113.49
		c-0.19-61.16-0.24-122.33-0.83-183.48c-0.16-16.51-4.7-32.24-13.32-46.57c-6.46-10.73-16.2-16.73-27.94-20.41
		c-10.42-3.27-18.41,1.61-26.64,6.47c-11.76,6.94-23.62,13.72-35.37,20.69c-9.6,5.69-19.25,11.32-28.59,17.41
		c-12.24,7.98-18.14,20.61-22.92,33.7c-2.32,6.37-3.01,13.33-5.22,19.75c-5.77,16.72-8.46,33.91-8.39,51.51
		c0.23,53.99,0.49,107.99,1.04,161.98c0.14,13.13,0.87,26.32,2.44,39.35c1.19,9.84,5.34,18.88,12.52,26.17
		c3.08,3.12,6.82,3.93,11.32,4.08c-3.66-5.27-7.24-9.53-9.84-14.32c-7.42-13.63-9.84-28.55-9.96-43.86
		c-0.44-56.83-0.73-113.65-1.13-170.48c-0.16-22.68,1.96-44.87,11.78-65.8c5.1-10.89,12.46-20.03,22.37-26.28
		c11.78-7.44,24.52-13.39,36.9-19.86c12.69-6.63,25.4-13.23,38.22-19.61c5.84-2.9,11.91-2.58,17.86,0.21
		c11.92,5.59,19.17,15.29,21.55,27.75c2.36,12.36,3.96,25.07,4.05,37.63c0.62,86.15,0.89,172.31,0.95,258.47
		c0.01,20.66-1.12,41.14-9.91,60.67c-4.82,10.7-10.38,19.17-22.2,22.36c-1.29,0.35-3.03,2.3-3.04,3.51
		C905.46,615.26,906.02,620.21,906.44,626.38z M186.65,473.24c8.29-9.95,9.6-13.32,10.25-26.21c0.13-2.66,0.18-5.33,0.18-8
		c-0.03-28.49-0.2-56.98-0.05-85.46c0.03-6.43,0.4-13.05,1.97-19.25c2.49-9.82,2.33-19.37,0.1-29.1c-0.73-3.22-0.96-6.55-1.42-9.82
		c0.41-0.09,0.83-0.17,1.24-0.26c1.66,7.26,3.32,14.53,4.99,21.79c0.83-0.7,1.03-1.28,1.04-1.87c0.02-14.5-0.09-28.99,0.08-43.49
		c0.04-3.39-1.93-4.58-4.34-5.89c-14.32-7.8-28.6-15.68-42.93-23.45c-5.06-2.74-10.22-5.31-15.37-7.86c-1.7-0.84-3.66-1.2-5.32-2.12
		c-12.22-6.75-24.31-13.75-36.62-20.32c-6.7-3.58-13.71-3.21-20.76-0.29c-9.95,4.12-16.51,11.68-21.54,20.72
		C49.8,247.39,48,263.93,47.95,280.73c-0.12,41.66-0.15,83.33-0.14,124.99c0.01,29.83-0.17,59.66,0.38,89.48
		c0.19,10.09,2.18,20.18,3.75,30.2c0.79,5.04,3.51,5.98,6.49,3.95c-1.53-9.26-4.1-18.03-4.24-26.84c-0.47-29.65-0.13-59.32,0-88.99
		c0.21-47.16,0.45-94.32,0.81-141.48c0.09-11.07,1.54-21.89,7.41-31.74c3.98-6.69,8.22-13.01,15.63-16.25
		c6.13-2.68,11.1,0.7,16.42,3.22c17.29,8.16,34.88,15.67,52.09,23.99c11.53,5.57,19.44,14.73,23.97,26.95
		c3.97,10.71,7.07,21.56,7.42,32.99c0.59,19.47,0.99,38.95,1.23,58.43c0.37,30.16,0.89,60.32,0.56,90.48
		c-0.09,8.11-2.98,16.2-4.7,24.28c-0.57,2.66-1.5,5.24-2.61,9.06c7.67-1.69,14.12-3.04,20.51-4.62c0.77-0.19,1.63-1.54,1.77-2.46
		C195.45,481.6,191.5,475.13,186.65,473.24z M257.68,678.13c1.82-3.63,4.47-6.31,0.99-10.24c-10.41-11.75-26.41-16.02-41.44-10.61
		c-15.61,5.62-27.15,20.41-27.35,35.41c-0.11,8.66,0.32,17.33,0.23,25.99c-0.14,12.31,1.6,25.17-1.35,36.81
		c-4.31,17.01-6.97,34.21-10.13,51.37c-4.92,26.72-8.92,53.51-8.83,80.83c0.04,13.01,6.8,19.12,18.68,23.09
		c1.88,0.63,3.9,1.03,5.88,1.15c14.61,0.85,29.22,1.6,43.83,2.38c0.36-0.72,0.72-1.45,1.08-2.17c-3.27-2.76-8.08-4.87-9.53-8.38
		c-5.71-13.82-11.15-27.87-8.33-43.5c1.54-8.55,0.33-16.85-3.57-24.8c-2.11-4.3-3.95-8.86-5.07-13.5
		c-4.51-18.69,0.51-36.33,6.76-53.68c2.62-7.29,5.96-14.32,9.15-21.89c-11.15,0-21.71,0-32.24,0c-0.25-0.74-0.54-1.2-0.54-1.65
		c0.08-17.49-0.48-35.02,0.58-52.45c0.53-8.74,4.5-16.88,12.24-22.58C222.98,659.17,246.11,662.06,257.68,678.13z M328.88,649.02
		c2.78,0,5.34-0.5,7.62,0.09c8.06,2.09,15.97,4.71,24.02,6.83c6.74,1.78,10.63,0.27,12.28-4.16c1.43-3.86-0.92-7.53-7.24-10.3
		c-8.08-3.54-16.11-7.39-24.53-9.9c-7.22-2.15-14.92-3.36-22.46-3.62c-7.69-0.26-14.24,6.25-14.41,13.84
		c-0.22,10-3.59,18.85-7.9,27.58c-3.6,7.29-3.9,14.83-0.28,22.14c2.11,4.26,1.97,7.94-0.86,11.62c-3.54,4.61-4.65,9.87-4.09,15.56
		c1.26,12.69,6.82,23.6,14.73,33.25c3.98,4.85,9.57,7.86,15.99,8.43c11.44,1.02,22.9,2.13,34.37,2.44c3.28,0.09,7.15-1.83,9.75-4.02
		c1.68-1.41,2.2-5.04,1.97-7.55c-0.11-1.18-3.08-2.64-4.96-3.03c-8.8-1.83-17.63-3.53-26.51-4.86c-3.71-0.56-7.57,0.02-11.36-0.13
		c-1.79-0.07-3.57-0.65-5.35-1c-0.1-0.59-0.21-1.18-0.31-1.77c1.73-0.84,3.41-2.27,5.19-2.41c3.12-0.24,6.31,0.18,9.44,0.55
		c6.15,0.73,6.83,0.28,8.44-7.49c-6.87,0-13.52,0.41-20.08-0.21c-2.45-0.23-6.08-2.46-6.63-4.47c-0.58-2.15,1.83-5.12,2.94-7.73
		c0.65-0.12,1.31-0.25,1.96-0.37c-1.14,8.05,3.74,7.77,8.63,7.97c8.16,0.32,16.3,1.03,24.45,1.44c6.65,0.33,13.32,0.64,19.98,0.63
		c4.66,0,6.74-3.31,7.42-7.39c0.69-4.09-1.87-6.1-5.47-7.07c-1.44-0.39-2.9-0.75-4.36-1.07c-10.88-2.4-21.78-4.71-32.64-7.21
		c-8.9-2.05-17.77-4.27-26.6-6.59c-1.33-0.35-3.03-1.45-3.47-2.62c-1.49-3.92-2.5-8.03-3.42-11.18c6.35,0.89,12.65,1.86,18.97,2.63
		c6.38,0.78,12.81,1.16,19.17,2.08c6.09,0.88,12.07,2.49,18.17,3.29c5.54,0.72,8.25-1.58,9.51-6.54c1.34-5.27-2.1-6.76-5.93-8.04
		c-15.44-5.19-30.87-10.42-46.35-15.5c-6.4-2.1-7.75-4.45-5.69-12.02c1.28,2.44,2.32,4.4,2.94,5.59c4.08-3.13,8.13-6.23,13.07-10.02
		C328.87,649.11,328.84,649.8,328.88,649.02z M673.83,669.19c-20.25-1.36-40.39-3.24-60.34,0.4c-8.37,1.53-16.74,4.59-24.33,8.47
		c-11.31,5.78-12.42,15.56-3.01,24.11c5.09,4.62,11.04,8.69,17.26,11.62c23.03,10.84,47.62,13.08,72.68,11.69
		c17.4-0.96,34.52-3.5,50.07-12.01c3.83-2.1,7.39-5.14,10.24-8.47c4.68-5.46,4.46-10.5-0.95-15.37c-4.13-3.72-8.88-7.37-14.02-9.24
		c-9.8-3.57-20.07-5.83-30.14-8.66c-5.06-1.42-9.18-1.11-10.21,5.28c-0.02,0.12-0.44,0.17-0.63,0.24
		c1.54-9.08,3.09-18.14,4.67-27.46c-2.34-0.37-3.92-0.62-5.89-0.93c-1.67,9-3.27,17.62-4.98,26.83
		C674.09,673.24,673.97,671.34,673.83,669.19z M724.03,838.4c4.4,3.03,6.43,7.26,4,9.55c-2.83,2.66-6.42,4.52-9.68,6.72
		c0.07,0.49,0.14,0.98,0.21,1.48c3.62-0.21,7.38,0.13,10.84-0.73c9.69-2.4,19.23-5.38,28.89-7.92c1.67-0.44,3.62,0.18,5.44,0.32
		c0.03,0.65,0.06,1.29,0.09,1.94c-6.8,2-13.57,4.11-20.41,5.97c-6.87,1.87-13.8,3.5-21.36,5.4c5.24,2.53,6.16,6.13,3.19,11.38
		c11.37-0.52,22.07-1.01,33.27-1.52c1.64,2.75-0.74,3.86-3.45,3.99c-14.53,0.65-29.08,5.15-43.61,0.09
		c-1.61-0.56-3.09-1.5-4.63-2.26c0.98-1.36,1.96-2.72,2.89-3.99c-0.64-0.27-1.52-0.64-2.41-1.01c2.49-2.71,4.98-5.41,7.54-8.19
		c-1.93-0.7-4.49-1.62-8.47-3.06c-3.23,19.77-6.34,38.82-9.5,58.16c7.4,0,14.54-0.27,21.65,0.1c4.51,0.23,8.96,1.55,13.47,2.15
		c5.49,0.73,11.85,3.21,16.32,1.33c6.95-2.92,12.18-9.1,13.06-17.68c0.24-2.34,1.54-4.68,2.74-6.8c5.24-9.24,10.86-18.17,8.89-29.75
		c-0.6-3.51,1.08-7.49,2.03-11.17c0.75-2.89,1.98-5.65,3.01-8.46c2.22-6.08,1.13-11.34-4.52-14.8c-4.66-2.86-4.6-6.44-3.58-11.15
		c0.73-3.35,0.11-7.06-0.3-10.56c-0.26-2.21-1.68-4.29-1.84-6.49c-0.59-7.81-6.05-16.11-15.85-17.94
		c-12.14-2.27-21.66,3.52-31.52,8.48c-3.31,1.66-6.03,4.49-9.17,6.9c1.7,1.36,2.82,2.26,3.94,3.15c-0.15,0.28-0.3,0.56-0.45,0.85
		c-1.27-0.19-2.53-0.38-3.8-0.56c-0.21,0.4-0.43,0.79-0.64,1.19c1.25,0.94,2.68,2.84,3.72,2.64c2.47-0.47,4.75-1.92,7.11-2.98
		c-0.16-0.47-0.33-0.93-0.49-1.4c-2.03-0.84-4.05-1.69-6.25-2.6c2.15-3.65,5.5-5.87,9.42-4.93c2.28,0.54,5.26,3.26,5.69,5.43
		c1.23,6.28-5.41,6.59-9.83,9.98c14.31,1.88,25.32-2.98,36.12-10.28c1.02,1.19,2.33,2.74,4.58,5.39
		c-11.16,3.58-21.32,6.57-31.27,10.14c-6.66,2.38-13.15,5.33-19.47,8.51c-4.32,2.17-2.23,5.59-0.55,8.52
		c1.87,3.24,2.53,3.33,6.64,1.46c-4.65-5.79-4.86-7.56-1.22-10.4c4.55-3.55,9.03-3.66,11.54-0.3c2.91,3.91,1.96,6.36-4.5,10.63
		c1.38,0,2.34,0.2,3.16-0.03c8.77-2.5,17.51-5.11,26.28-7.61c2.25-0.64,5.07-3.8,6.71,0.25c1.7,4.2-2.75,4.06-4.73,4.65
		C743.44,833.42,733.79,835.81,724.03,838.4z M694.29,197c0.37-5.79,1.44-11.63,0.98-17.35c-1.16-14.72-8.84-26.45-19.25-36.23
		c-15.56-14.61-33.42-25.57-53.7-32.72c-18.74-6.61-37.52-12.41-57.46-14.41c-41.73-4.18-81.29,2.74-118.73,21.63
		c-22.09,11.14-39.85,27.05-52.67,48.3c-8.09,13.41-12.02,27.96-9.41,43.5c3.1,18.46,12.49,33.53,27.38,45.02
		c1.79,1.38,3.81,2.45,5.73,3.67c0.5-0.28,0.99-0.56,1.49-0.84c-0.7-2.08-0.87-4.63-2.21-6.16c-4.72-5.42-10.58-9.96-14.65-15.79
		c-11.95-17.12-14.26-35.61-5.26-54.85c7.76-16.59,19.88-29.63,35.07-39.49c30.79-19.99,64.82-29.99,101.49-30.43
		c42.71-0.51,83.4,6.72,119.94,30.96C673.55,155.43,689.51,171.73,694.29,197z M977.42,906.14c-7.8,1.05-15.16,2.6-22.58,2.94
		c-31.58,1.44-63.17,2.59-94.77,3.62c-2.96,0.1-4.45,1.09-5.96,3.34c-6.3,9.38-12.85,18.59-19.14,27.98
		c-2.33,3.48-4.2,7.27-6.78,11.78c2.88,0,4.35,0.01,5.82,0c26.12-0.27,52.24-0.52,78.36-0.85c4.48-0.06,9.03-0.03,13.43-0.75
		c19.04-3.11,32.57-14.83,44.71-28.83C975.42,919.69,978.44,913.68,977.42,906.14z M334.88,457.17c-0.33-0.47-0.66-0.94-0.98-1.41
		c-1.25,0.3-2.52,0.53-3.75,0.9c-12.58,3.74-25.18,7.39-37.71,11.27c-20.81,6.44-41.56,13.12-62.39,19.49
		c-3.98,1.22-5.03,3.21-3.6,7.18c6.73-2.33,13.49-4.54,20.14-7.04c3.31-1.24,5.56-0.35,6.82,2.7c2.34,5.67,5.53,11.26,6.43,17.18
		c2.33,15.43,3.82,31,5.23,46.55c0.83,9.12,3.11,16.78,12.93,19.13c3.6-1.96,7.09-3.83,10.53-5.77c0.66-0.37,1.51-0.94,1.67-1.57
		c2.9-10.91,7.72-21.77,8.06-32.78c0.52-16.84-2.01-33.78-3.37-50.66c-0.31-3.79-1.12-7.54-1.7-11.31c0.53-0.15,1.06-0.31,1.59-0.46
		c0.79,1.83,2.07,3.61,2.28,5.5c1.9,17.02,3.62,34.05,5.39,51.09c0.21,2.03,0.36,4.07,0.56,6.41c6.76-3.97,7.59-4.99,7.76-11.68
		c0.27-10.72,3.68-19.23,14.79-22.88c2.37-0.78,4.76-1.56,6.99-2.65c1.01-0.49,2.34-1.72,2.35-2.63
		c0.17-10.42,0.11-20.84,0.11-32.06c-12.48,3.68-23.85,7.03-35.22,10.38c0.79-1.27,1.82-1.73,2.89-2.1
		c9.57-3.36,19.17-6.65,28.7-10.11C332.7,459.38,333.72,458.09,334.88,457.17z M669.91,315.51c0.15-2.02,0.21-3.51,0.39-4.98
		c4.35-35.82-19.12-76.17-59.81-80.59c-22.49-2.44-45.15-3.7-67.77-4.45c-26.02-0.86-52.07,0.14-77.46,6.59
		c-29.58,7.51-49.68,25.97-52.46,57.78c-1.59,18.22-1.74,36.62-1.49,54.92c0.32,22.98,1.58,45.94,2.81,68.89
		c0.14,2.67,2.62,5.21,4.02,7.82c1.37-2.45,3.68-4.8,3.95-7.37c1.27-12.07,2.9-24.2,2.7-36.29c-0.39-24.31-2.26-48.59-2.77-72.89
		c-0.28-13.34,0.98-26.72,8.29-38.57c9.77-15.83,24.14-25.32,41.82-30.41c14.91-4.3,30.21-4.74,45.53-5.41
		c29.73-1.29,59.33-0.2,88.59,5.49c29.06,5.65,51.14,27.96,54.35,55.42c1.56,13.36,2.54,26.93,2.14,40.36
		c-0.88,29.49-2.18,58.94,0.43,88.4c0.26,2.95,0.71,5.88,1.2,9.88c10.03-18.28,15.32-94.32,8.57-116.19
		C672.02,314.4,671.16,314.85,669.91,315.51z M213.5,178.02c-5.24,1.37-4.46,4.7-4.46,7.52c-0.14,94.14-0.29,188.28-0.38,282.41
		c-0.05,57.32-0.01,114.63-0.01,171.95c0,5.05,0,10.11,0,15.89c2.77-1.19,4.25-2.45,5.51-2.26c5.3,0.83,6.31-1.99,6.08-6.3
		c-0.09-1.66,0.05-3.33,0.07-5c0.59-88.14,1.3-176.27,1.73-264.41c0.32-65.98,0.28-131.96,0.38-197.94c0-1.43-0.18-2.86-0.28-4.35
		c-5.93,1.16-5.94,1.18-5.95,8.42c-0.06,81.3,2.24,162.61-0.87,243.9c-0.58,15.21-0.08,30.46-0.08,45.69c-0.58,0-1.15,0-1.73,0
		c0-49.12,0-98.24,0-147.36C213.5,277.06,213.5,227.92,213.5,178.02z M902.98,626.67c-1.56-14.85-2.09-28.53-4.68-41.81
		c-2.15-11.01-8.68-18.73-22.83-18.8c-22.14-0.12-44.27-0.52-66.4-0.66c-4.2-0.03-8.4,0.66-13.73,1.11
		c3.69,15.41,7.09,29.92,10.78,44.36c0.31,1.2,2.45,2.58,3.87,2.73c8.59,0.94,17.25,1.22,25.81,2.35
		c18.61,2.46,37.18,5.25,55.75,8.01C894.78,624.44,897.95,625.46,902.98,626.67z M172.78,909.1c1.8,6.22,2.98,13.17,5.78,19.41
		c6.67,14.89,18,25.67,34.47,27.1c21.67,1.89,43.55,2.19,65.33,1.9c31.41-0.41,28.62-0.47,51.68-22.02c0.85-0.79,1.67-1.65,2.33-2.6
		c0.92-1.32,1.68-2.76,3.25-5.38c-4.07,1.01-6.91,1.58-9.68,2.41c-13.57,4.09-27,7.27-41.62,5.54
		c-13.67-1.62-25.75-5.64-36.58-14.04c-4.11-3.19-8.91-4.47-14.45-4.29c-12.14,0.39-24.4,0.83-36.42-0.49
		C188.9,915.76,181.26,911.87,172.78,909.1z M782.81,540.13c-0.39-2.11-0.63-3.19-0.79-4.28c-1.32-9.37-3.67-18.74-3.77-28.12
		c-0.49-48.13-0.51-96.26-0.46-144.4c0.01-14.12,0.72-28.24,1.24-42.36c0.37-10.22,4.45-20.77-2.66-30.51
		c1.59,1.91,3.18,3.81,5.7,6.82c3.02-24.75,9.69-47.13,22.22-67.28c-19.59,12-39.18,24-58.23,35.67
		c7.03,5.75,13.63,11.14,20.23,16.54c-0.61,0.24-1.21,0.48-1.82,0.72c-0.12,1.56-0.62,3.21-0.31,4.68
		c2.54,12.02,3.56,24.07,3.32,36.43c-0.34,17.46,1.14,34.95,1.14,52.43c0,40.31-0.38,80.61-0.69,120.92
		c-0.07,8.98-0.39,17.96-0.83,26.93c-0.15,3.07-1,6.11-1.57,9.39C771.28,535.84,776.54,537.8,782.81,540.13z M309.3,334.87
		c2.73,1.23,5.57,2.86,8.62,3.74c1.34,0.39,3.12-0.72,4.71-1.15c-0.93-1.12-1.86-2.25-2.8-3.37c-0.49-0.58-0.99-1.15-1.47-1.75
		c-5.5-6.8-12.21-12.01-20.12-15.76c-2.58-1.23-4.33-0.9-5.97,1.36c-5.48,7.52-9.58,15.38-9.57,25.16
		c0.03,24.99-0.45,49.98-0.53,74.96c-0.01,4.51,0.96,9.03,1.47,13.55c0.48-0.04,0.97-0.08,1.45-0.12c0.27-3.76,0.78-7.52,0.76-11.28
		c-0.14-26.63-0.55-53.26-0.42-79.89c0.02-3.86,1.69-8.18,3.88-11.44c3.08-4.59,7.14-4.02,9.68,0.94c1.89,3.68,3.35,7.63,4.57,11.6
		c3.5,11.39,9.23,22.11,7.56,34.88c-1.52,11.58-1.33,23.37-2.2,35.05c-0.18,2.39-1.72,4.67-2.64,7c-0.44-0.17-0.89-0.34-1.33-0.51
		c0.29-5.62,0.88-11.24,0.82-16.85c-0.17-15.97-0.33-31.95-1.11-47.89c-0.21-4.31-2.34-8.64-4.14-12.72
		c-1.39-3.16-7.79-5.48-10.41-4.04c-3.61,1.98-1.63,5.18-1.33,8c0.47,4.45,1.2,8.92,1.17,13.38c-0.1,14.82-0.4,29.65-0.8,44.47
		c-0.28,10.27-0.62,20.55-1.44,30.79c-0.2,2.49-1.96,5.21-3.74,7.16c-4.72,5.21-6.83,11.45-7.37,18.15
		c-0.15,1.9,1.64,5.15,3.26,5.71c2.4,0.83,5.64,0.31,8.1-0.67c1.03-0.41,1.8-3.75,1.29-5.29c-1.1-3.35-3.11-6.39-4.48-9.04
		c1.34-0.13,3.11-0.06,4.74-0.51c3.85-1.06,7.59-2.51,11.45-3.55c12.14-3.26,12.12-3.21,11.83-15.64
		c-0.62-26.93-1.21-53.86-1.79-80.79c-0.01-0.62,0.31-1.25,0.51-2.03c1.48,0,2.84,0,4.2,0c-0.48,0.33-0.99,0.34-1.45,0.5
		c-0.23,0.08-0.36,0.42-0.89,1.07c3.15-1.21,6.61,3.06,9.04-1.38c-3.86-1.38-7.54-2.69-11.22-4c0.12-0.3,0.25-0.59,0.37-0.89
		c4.2,0.76,8.4,1.52,12.6,2.29C313.41,341.51,309.44,339.12,309.3,334.87z M531.3,541.38c-2.46-1.08-6-2.47-9.38-4.18
		c-3.54-1.79-7.25-3.5-10.31-5.96c-6.64-5.34-12.68-11.29-19.8-16.22c-5.13-3.55-8.01-10.3-12.03-15.52
		c-1.1-1.43-2.7-2.49-4.06-3.72c-0.84,1.69-2.17,3.31-2.43,5.09c-0.71,4.93-0.98,9.93-1.41,14.91c-0.37,4.28-1.57,7.96-5.34,10.74
		c-1.64,1.21-3.39,3.98-3.14,5.76c0.98,6.85,0.98,14.81,4.61,20.12c7.39,10.83,16.9,20.21,25.58,30.24
		C506.68,568.32,518.87,554.98,531.3,541.38z M629.74,258.2c-1.5-1.61-2.4-2.99-3.66-3.87c-8.32-5.85-17.29-10.05-27.72-10.07
		c-37.63-0.08-75.27-0.46-112.9,0.07c-9.49,0.13-19.07,2.73-28.34,5.2c-4.42,1.17-8.21,4.7-13.24,7.73
		C456.75,262.15,618.74,262.76,629.74,258.2z M606.45,492.45c-8.51,26.87-29.8,38.51-52.38,48.92c7.09,1.52,11.43,7.13,15.03,13.43
		c5.36,9.38,10.51,18.87,15.77,28.3c3.4,6.08,4.52,6.7,10.35,2.78c6.59-4.43,12.74-9.55,18.8-14.69c1.46-1.24,2.5-3.72,2.61-5.68
		c0.33-6.13,0.12-12.28,0.12-17.5c-2.51,3.49-5.48,8.08-8.93,12.29c-3.44,4.19-6.43,9.08-12.33,10.57c2.88-4.5,6.65-8.29,9.42-12.71
		c4.49-7.15,8.84-14.48,12.26-22.18c2.77-6.23,0.18-9.64-6.53-10.77c-0.61-0.1-1.2-0.38-1.4-0.45
		C608.29,513.74,607.37,503.11,606.45,492.45z M270.46,572.66c-6.08-4.79-7.29-11.37-7.93-18.33c-1.12-12.27-1.93-24.6-3.94-36.73
		c-1.53-9.23-4.72-18.18-7.35-27.9c-6.93,2.43-12.43,4.47-18.01,6.28c-3.26,1.06-4.06,2.54-3.43,6.21
		c1.9,11.14,3.53,22.36,4.45,33.62c1.16,14.27,1.35,28.62,2.26,42.91c0.64,10.05,2.88,11.3,11.64,6.65
		C255.5,581.47,262.62,577.15,270.46,572.66z M204.6,642.25c-13.52-0.73-26.45-1.57-39.39-2.01c-2.98-0.1-6.34,0.56-8.96,1.93
		c-15.04,7.84-29.92,15.99-44.85,24.05c-1.67,0.9-3.27,1.91-4.91,2.87c-0.02,0.65-0.04,1.29-0.06,1.94c3.8,1.03,7.58,2.85,11.4,2.94
		c20.12,0.51,40.25,0.86,60.37,0.62c6.04-0.07,13.13,1.17,17.04-6.36c1.64-3.17,4.96-5.46,7.4-8.24c0.82-0.94,1.8-2.15,1.85-3.28
		C204.72,651.93,204.6,647.14,204.6,642.25z M396.86,152.74c-21.96,0-43.31,0-65.3,0c10.5,21.83,17.65,44.23,30.41,63.13
		c5.94-1.1,11.41-2.11,17.19-3.18C375.35,189.76,383.62,170.51,396.86,152.74z M255.38,328.12c0.49,1.93,0.84,3.12,1.09,4.33
		c1.32,6.45,3.61,12.88,3.74,19.35c0.49,23.96,0.41,47.93,0.26,71.9c-0.07,10.92,1.89,22.4-6.6,31.63c-0.09,0.1,0.18,0.54,0.42,1.19
		c3.67-0.77,7.46-1.31,11.09-2.37c6.91-2.03,10.86-6.8,11.73-13.97c0.32-2.64,0.54-5.31,0.55-7.97c0.13-32.45,0.19-64.91,0.35-97.36
		c0.02-4.06-1.6-6.51-5.64-6.68C266.92,327.96,261.46,328.12,255.38,328.12z M427.77,356.09c-0.34,0.19-0.68,0.38-1.02,0.57
		c0.37,1.37,0.53,2.84,1.13,4.11c8.1,17.14,36.14,37.36,61.38,25.38c9.17-4.35,17.75-10.5,25.53-17.09
		c8.95-7.58,13.94-18.14,16.69-29.55c1.26-5.22,4.23-7.68,9.56-7.41c1.49,0.08,3.01,0.13,4.49-0.03c5.41-0.58,8.04,1.77,9.36,7.12
		c4.03,16.31,12.15,29.57,26.38,39.71c31.6,22.52,68.3,5.53,76.78-26.41c5.21-19.61-5.85-44.25-22.15-57.21
		c-14.68-11.67-46.64-12.95-62.95,3.14c-6.4,6.32-11.7,13.96-16.51,21.61c-2.88,4.58-5.53,7.49-11.23,7.08
		c-4.3-0.31-8.65,0.2-12.98,0.13c-3.29-0.05-5.14,0.88-5.55,4.6c-0.53,4.78-1.67,9.5-2.65,14.22c-4.87,23.46-25.92,37.47-44.3,38.29
		c-18.85,0.84-34.02-6.24-45.83-20.83C431.9,361.03,429.82,358.57,427.77,356.09z M337.1,495.61c3.99-0.71,6.38-0.68,6.42-4.68
		c0.3-31.31,1.16-62.62,1.14-93.92c-0.03-31.97-1.14-63.94-1.21-95.91c-0.03-12.85,2.06-25.54,11.29-35.66
		c3.69-4.05,7.59-7.91,11.81-12.3c-0.65-1.94-1.72-5.02-2.73-8.12c-1.23-3.74-3.71-4.99-7.61-4.04c1.31,3.69,2.56,7.19,3.83,10.74
		c-4.28,0.99-4.05,0.93-3.19,4.19c0.27,1.01-0.73,2.85-1.7,3.58c-1.21,0.9-2.99,1.04-4.89,1.62c-0.86-2.72-1.69-5.32-2.5-7.89
		c2.97-1.92,5.58-3.61,8.07-5.23c-3.24-10.37-4.67-11.86-11.26-11.99c-8.35-0.17-9.8,0.64-12.09,6.95
		c8.9,6.27,9.79,16.31,11.16,26.39c1.6-1.72,2.78-2.98,4.17-4.47c0.27,0.88,0.53,1.27,0.42,1.46c-0.86,1.6-1.67,3.25-2.72,4.72
		c-6.12,8.55-7.94,18.15-7.2,28.43c0.25,3.48,0.63,6.97,0.58,10.46c-0.25,21.14-0.64,42.27-0.93,63.4
		c-0.31,22.65-0.64,45.3-0.81,67.95C336.99,459.23,337.1,477.17,337.1,495.61z M159.8,497.13c0.62,0.46,1.23,0.92,1.85,1.38
		c2.13-2.2,4.94-4.05,6.29-6.66c6.17-11.94,8.1-24.86,8.05-38.2c-0.16-42.29-0.05-84.59-0.43-126.88
		c-0.1-10.61-0.59-21.43-2.8-31.75c-3.6-16.78-10.25-32.04-27.63-39.76c-10.49-4.66-20.5-10.38-30.97-15.06
		c-9.03-4.04-18.36-7.48-27.7-10.77c-2.87-1.01-6.87-1.36-7.99,2.5c-0.29,0.99,3.4,3.72,5.67,4.77
		c21.17,9.71,42.44,19.19,63.65,28.83c7.84,3.56,12.77,9.62,15.77,17.75c4.85,13.15,7.1,26.7,7.15,40.6
		c0.14,40.64,0.02,81.28,0.16,121.91C170.93,463.7,171.46,481.64,159.8,497.13z M286.95,149.41c-6.47-13.7-12.69-26.86-18.89-40.03
		c-1.03-2.2-2-4.43-2.94-6.67c-0.62-1.48-0.71-3.5-1.78-4.42c-7.58-6.57-21.58-3.28-25.57,5.92c-0.4,0.92-0.65,2.61-0.14,3.12
		c4.23,4.24,3.21,9.57,3.27,14.63c0.1,9.1,0.03,18.2,0.03,27.45C256.68,149.41,271.52,149.41,286.95,149.41z M602.36,890.41
		c0.48,3.79,1.01,6.88,1.23,9.99c0.77,10.56,6.53,17.46,15.66,22.09c10.14,5.14,20.94,7.55,32.2,8.25
		c12.65,0.78,24.1-2.39,34.12-10.29c6.53-5.14,10.27-13.78,9.49-21.38C662.47,917.44,631.79,913.48,602.36,890.41z M219.1,824.92
		c0.55,0.05,1.09,0.1,1.64,0.15c0.49-5.66,1.49-11.33,1.36-16.98c-0.24-10.53,1.66-20.39,6.19-29.96
		c7.17-15.16,13.89-30.53,20.76-45.83c0.88-1.97,1.73-4,2.18-6.1c4.06-19.14,11.33-37.18,18.33-55.36c3.48-9.05,5.52-18.7,7.7-28.19
		c3.23-14.08,5.42-28.42,9.12-42.37c4.13-15.58,9.38-30.86,14.26-46.23c2.11-6.65,5.18-13.49,11.55-16.29
		c6.33-2.79,7.7-7.04,7.87-12.77c0.1-3.25,1.25-5.3,4.82-5.76c3.09-0.4,3.76-2.42,2.46-5.11c-0.68-1.42-1.52-2.77-2.16-3.94
		c2.79-2.54,5.34-4.86,8.67-7.9c-13,1.72-17.82,6.73-18.64,18.16c-0.09,1.33,0.17,2.8-0.33,3.96c-1.1,2.57-1.96,5.84-4.01,7.3
		c-6.57,4.68-10.83,10.71-13.06,18.33c-2.14,7.35-3.99,14.79-6.42,22.05c-9.3,27.81-18.91,55.52-20.22,85.22
		c-0.06,1.43-0.62,2.9-1.2,4.24c-4.51,10.36-9.85,20.44-13.47,31.1c-8.32,24.5-19.19,47.83-30.07,71.24
		c-4.15,8.94-6.55,18.85-8.68,28.54C215.34,803.25,216.5,814.2,219.1,824.92z M224.92,463.45c0.5,0.27,1,0.54,1.5,0.81
		c1.26-0.88,2.91-1.49,3.72-2.68c4.92-7.22,8.56-14.75,8.66-23.97c0.34-30.31,1.2-60.62,1.82-90.93c0.1-5.06,0.01-10.13,0.01-15.31
		c-4.91,0-9.17,0-13.77,0C226.21,375.59,225.57,419.52,224.92,463.45z M876.7,793.79c-2.4-4.8-5.19-10.04-7.66-15.42
		c-3.55-7.71-6.26-15.87-10.41-23.23c-14.61-25.93-24.82-53.79-36.26-81.11c-14.39-34.38-23.76-70.3-31.83-106.58
		c-1.19-5.35-6.7-10.16-11.55-9.87c-4.6,0.27-8.69,5.49-9.28,12.07c1.26,0.24,2.56,0.43,3.84,0.73c5.08,1.17,9.79,3.4,11.71,8.4
		c3.41,8.84,6.98,17.75,8.98,26.96c8.5,39.13,23.84,75.88,38.91,112.68c7.55,18.44,17.39,35.93,25.79,54.04
		C863.13,781.49,868.6,789.1,876.7,793.79z M600.91,487.42c-0.59,0.94-1.11,1.94-1.79,2.81c-6.89,8.95-13.43,18.22-24.06,23.38
		c-15.27,7.42-31.34,7.37-47.36,4.32c-12.4-2.36-24.15-6.87-31.76-19.76c0.25,2.82,0.09,4.54,0.58,6.04
		c11.3,34.65,48.18,40.1,69.22,28.42c11.56-6.42,21.01-15.02,29.39-25.13C600.04,501.58,600.82,494.66,600.91,487.42z
		 M228.36,277.21c0.56-0.57,1.12-1.14,1.68-1.72c35.14,20.29,70.29,40.59,105.43,60.88c0.39-0.35,0.79-0.7,1.18-1.06
		c-1.58-1.9-2.82-4.3-4.79-5.61c-6.92-4.61-14.17-8.72-21.16-13.24c-14.67-9.5-29.17-19.25-43.9-28.66
		c-6.26-3.99-13.02-7.19-19.35-11.08c-5.1-3.13-10.05-6.57-14.75-10.26c-1.5-1.18-2.83-3.63-2.83-5.5
		c-0.07-25.98,0.16-51.97,0.1-77.95c-0.01-2.38-1.52-4.76-2.33-7.14c-0.29,0.14-0.59,0.29-0.88,0.43c0,36.55,0,73.11,0,108.36
		c21.58,11.48,43.5,19.55,62.54,33.7c1.15-1.25,2.35-2.55,3.55-3.84c-0.37-0.42-0.53-0.76-0.8-0.9c-20-10.93-40.02-21.81-59.98-32.8
		C230.61,280.01,229.59,278.43,228.36,277.21z M424.73,441.49c-2.83,0.42-5.02,0.96-7.22,0.98c-1.11,0.01-2.25-0.9-3.34-1.46
		c-1.32-0.68-2.68-2.17-3.87-2.03c-5.52,0.63-9.8,5.38-9.53,10.95c0.27,5.76,1.27,11.48,2.14,18.73
		c16.72-16.25,34.79-28.56,55.07-37.55c-10.33-9.42-19.92-18.18-29.48-26.89c-1.99,6.25-3.26,11.78-5.5,16.88
		c-2.34,5.33-7.22,5.26-10.09,0.11c-1.41-2.53-2.26-5.37-3.37-8.07c-0.26,0.04-0.52,0.09-0.79,0.13c0,3.72,0,7.44,0,10.97
		c0.24-0.33,0.63-0.87,1.41-1.93c0.34,1.93,0.59,3.3,0.83,4.63c-7.49,2.36-8.14,3.68-6.41,12.5c1.13-0.28,2.25-0.76,3.38-0.8
		c4.45-0.16,7.24-1.55,6.46-6.85c-0.13-0.85,2.01-2.03,2.72-2.69c-0.83,1.96-2.39,3.84-2.17,5.47
		C415.67,439.58,420.26,440.25,424.73,441.49z M704.1,299.02c9.55-4.9,19.72-10.19,29.97-15.34c3.71-1.87,7.71-1.84,10.74,1.1
		c4.7,4.55,8.96,9.57,12.75,13.68c-1.03-2.15-2.6-5.43-4.17-8.71c1.84,1.19,3.12,2.67,4.17,4.3c4.09,6.34,4.33,13.57,4.31,20.72
		c-0.05,19.82-0.55,39.63-0.5,59.44c0.11,41.96,0.47,83.93,0.72,125.89c0.05,9.15-1.5,17.86-6.6,25.73
		c-1.86,2.87-3.24,6.04-5.08,9.53c3.17,1.74,6.07,3.33,9.42,5.18c0.46-2.31,0.86-3.58,0.95-4.88c1.04-14.41,2.83-28.82,2.91-43.24
		c0.32-62.94,0.26-125.89-0.04-188.83c-0.03-6.64-0.98-14.18-4.2-19.73c-8.49-14.64-15.7-19.94-31.11-10.39
		c-8.91,5.52-18.16,10.49-27.13,15.91c-2.94,1.78-5.5,4.21-8.5,6.55C696.94,297.08,700.15,297.95,704.1,299.02z M684.8,405.33
		c0,18.89-0.04,36.99,0.07,55.1c0.01,1.29,1.31,3.75,1.61,3.69c4.35-0.87,4.65,3.12,6.27,5.19c3.69,4.71,7.03,9.69,10.87,15.06
		c0-32.46,0-64.27,0-96.08C699.67,396.45,697.89,406.18,684.8,405.33z M239.42,156.15c-0.36,4.97,0.14,9.01-1.07,12.46
		c-2.11,6.01,0.09,9.25,4.47,13.32c9.75,9.05,18.54,19.13,27.9,28.6c18.61,18.82,37.34,37.53,56.06,56.26
		c4.05,4.06,8.24,7.98,12.36,11.96c2.75-3.24,2.25-5.45-0.06-7.99c-23.11-25.37-46.32-50.65-69.09-76.33
		C259.44,182.54,247.37,171.78,239.42,156.15z M227.51,288.83c-0.73,6.27-1.13,11.59,5.5,14.25c1.06,0.42,1.89,1.38,2.92,1.9
		c8.32,4.19,9.84,11.53,9.22,19.84c-0.77,10.43-2,20.85-2.31,31.29c-0.78,26.46-1.52,52.93-1.51,79.4c0,10.23-1.26,19.5-7.98,27.51
		c-0.11,0.13,0.12,0.54,0.19,0.82c8.85-0.66,10.38-1.87,11.22-10.41c0.58-5.95,0.62-11.97,0.7-17.96
		c0.46-36.79,0.84-73.59,1.32-110.38c0.07-5.35,7-10.91,11.83-8.93c8.68,3.56,18.63,5.58,22.95,16.09c1.83-4.15,3.43-7.79,5.5-12.46
		C267.32,309.53,247.65,299.31,227.51,288.83z M348.18,363.63c0,22.63,0,45.9,0,69.17c0.58,0.01,1.16,0.01,1.73,0.02
		c0-5.81,0-11.62,0-17.44c0.5,0.01,0.99,0.02,1.49,0.03c0,5.48,0,10.96,0,17.55c1.56-1.49,2.66-2.02,2.78-2.73
		c0.9-5.27,1.99-10.55,2.28-15.87c0.38-6.93,0.09-13.89,0.09-20.84c0.2,0,0.4,0,0.59,0c0,5.79,0,11.58,0,17.37
		c1.75-13.84-1.52-27.84,2.03-41.07c1.37,1.21,2.63,2.95,4.33,3.69c6.33,2.77,5.48,2.54,4.65,9.81
		c-1.38,12.02-1.49,24.19-2.02,36.31c-0.03,0.68,1.05,1.42,1.62,2.12c0.37-0.14,0.73-0.29,1.1-0.43c0.16-3.09,0.32-6.19,0.52-9.98
		c0.44,3.65,0.8,6.6,1.15,9.56c0.65-0.07,1.29-0.14,1.94-0.2c0-1.73-0.01-3.47,0-5.2c0.04-10.82,0.03-21.65,0.17-32.47
		c0.02-1.75,0.73-3.49,1.12-5.23c0.35,0.12,0.69,0.25,1.04,0.37c0,14.15,0,28.31,0,42.46c0.62,0.1,1.24,0.19,1.86,0.29
		c0.38-2.25,1.05-4.49,1.08-6.75c0.12-10.02,0.05-20.05,0.05-30.07c0.45,0,0.9,0,1.34,0.01c0,11.35,0,22.71,0,34.06
		c0.45,0,0.9,0,1.35-0.01c0-11.26,0-22.51,0-33.77c0.38,0.01,0.76,0.02,1.14,0.03c0.15,3.24,0.31,6.48,0.46,9.71
		c0.21,0,0.42,0,0.64,0c0.17-2.71,0.34-5.41,0.51-8.12c0.4,0.01,0.8,0.03,1.19,0.04c0,6.19,0,12.38,0,18.58
		c0.56,0.01,1.12,0.03,1.68,0.04c0.2-1.84,0.61-3.68,0.56-5.5c-0.14-5.15-0.21-10.33-0.84-15.43c-0.38-3.04-1.28-6.23-2.79-8.86
		c-3.66-6.38-16.52-11.53-23.82-10.64C355.5,364.7,351.62,363.86,348.18,363.63z M576.03,482.67c-5.2,14.62-9.21,17.41-25.54,17.38
		c-6.65-0.01-13.31-0.18-19.96-0.03c-5.53,0.13-10.24-1.73-13.83-5.73c-2.63-2.93-4.48-6.53-6.9-9.67
		c-0.87-1.13-2.36-2.49-3.59-2.51c-4.1-0.07-8.21,0.41-12.34,0.68c2.19,15.11,11.78,24.26,27.67,25.14
		c12.26,0.68,24.6,0.49,36.87-0.07c9.73-0.45,18.92-3.53,27.29-8.72c5.27-3.27,8.32-7.98,9.45-14.02c0.5-2.68-0.62-3.72-3.23-3.53
		C586.69,481.96,581.45,482.3,576.03,482.67z M687.14,401.7c2.15-1.19,5.12-1.83,6.14-3.6c2.26-3.94,4.86-8.39,5.02-12.71
		c0.85-23.25,1.1-46.53,1.3-69.8c0.04-4.44-0.69-8.99-1.74-13.32c-1.19-4.94-5.71-2.84-8.83-2.98c-0.9-0.04-2.78,2.72-2.77,4.18
		c0.1,12.47,0.73,24.93,0.84,37.4C687.26,360.6,687.14,380.35,687.14,401.7z M544.1,496.06c4.96-0.38,9.43-0.65,13.89-1.1
		c7.42-0.74,12.02-4.74,14.29-11.91c1.38-4.36,0.13-6.82-4.08-7.81c-4.69-1.1-9.4-2.24-14.17-2.83c-11.6-1.43-23.18-2.09-34.42,2.38
		c-5.03,2-5.98,3.56-4.1,8.59c2.14,5.73,6.31,9.46,12.25,10.61C533.27,495.07,538.93,495.44,544.1,496.06z M665.11,438.02
		c-0.8-0.02-1.59-0.04-2.39-0.05c-1.74-7.88-3.48-15.76-5.38-24.38c-7.46,7.27-15.25,12.71-24.98,14.97
		c-1.64,0.38-2.79,2.86-5.29,5.61c21.33,2.71,38.6,11.23,54.27,25.42c0-18.88,0-36.44,0-54.27c-1.91,0-3.64,0-4.87,0
		C672.59,416.49,668.85,427.25,665.11,438.02z M810.49,265.01c0.4,0.51,0.81,1.02,1.21,1.54c3.07-1.11,6.23-2.01,9.19-3.36
		c17.72-8.1,35.41-16.26,53.07-24.49c9.96-4.64,19.95-9.25,29.71-14.27c5.31-2.74,5.5-7.12,0.48-10.32c-1.6-1.02-4.85-0.72-6.74,0.2
		c-19.9,9.72-39.77,19.49-59.43,29.68c-7.49,3.88-14.57,8.64-21.49,13.5C813.96,259.25,812.46,262.46,810.49,265.01z M427.02,330.16
		c-1.37,6.31-2.58,12.66,0.92,18.37c3.62,5.92,7.13,12.12,11.79,17.17c19.84,21.53,57.98,21.32,74.32-4.34
		c8.69-13.65,12.98-28.46,6.97-44.59c-2.91-7.82-8.18-14.12-14.63-19.1c-26.66-20.59-64.43-14.08-81.12,22.12
		c-0.8,1.73-0.58,3.93-0.84,5.92c0.6,0.11,1.21,0.23,1.81,0.34c0.77-1.57,1.7-3.08,2.28-4.71c10.93-30.73,50.31-43.22,79.08-18.37
		c7.27,6.28,12.46,14.63,13.92,24.73c1.36,9.38-3.26,16.79-7.6,24.26c-11.52,19.87-30.8,27.56-52.9,21.31
		c-19.36-5.48-30.93-19.13-33.13-39.02C427.74,332.87,427.32,331.52,427.02,330.16z M151.91,497.22c0.38,0.33,0.76,0.67,1.14,1
		c1.76-1.68,3.83-3.14,5.23-5.07c5.19-7.16,8.59-15.24,8.65-24.08c0.35-50.3,0.51-100.6,0.46-150.9
		c-0.01-6.08-1.46-12.21-2.69-18.23c-0.87-4.26-1.88-4.85-5.23-5.45c1.15,6.73,3.33,13.55,3.33,20.37
		c-0.01,44.8-0.43,89.6-0.83,134.4c-0.12,13.47,0.35,27.07-5.89,39.65C154.7,491.69,153.3,494.45,151.91,497.22z M382.52,222.42
		c-1.84,2.08-3.22,3.68-4.65,5.24c-1.46,1.59-2.97,3.15-4.46,4.71c-3.02,3.15-2.03,8.56,1.92,10.47c5.74,2.78,8.82,7.31,6.49,12.82
		c-1.98,4.69,0.19,7.41,1.84,10.8c0.8,1.64,1.27,3.58,2.45,4.88c1.63,1.79,3.62,4.02,5.76,4.42c5.3,0.98,10.79,0.95,16.19,1.45
		c3.86,0.36,5.64-1.44,4.41-4.96c-1.85-5.28-3.44-10.99-6.69-15.36C397.57,245.88,387.64,236.14,382.52,222.42z M251.3,327.9
		c-0.88,0.18-1.76,0.36-2.64,0.54c0,43.1,0,86.2,0,129.41c4.13-6.27,8.05-12.63,8.12-20.78c0.21-25.79,0.65-51.58,0.89-77.37
		c0.05-5.48,0.33-11.1-0.74-16.41C255.86,338,253.24,333.02,251.3,327.9z M527.94,988.05c-2.88-4.9-5.58-9.62-8.44-14.23
		c-0.43-0.69-1.59-1.26-2.44-1.31c-13.35-0.71-26.74-0.81-39.56,3.43c-10.05,3.32-20.08,5.58-30.74,5.66
		c-3.58,0.03-7.15,2.52-10.73,3.87c-0.29,0.11-0.63,0.06-1.21,0.11c-0.46-1.06-0.96-2.19-2.03-4.65
		c-6.34,5.15-12.85,9.31-17.91,14.8c-7.53,8.17-13.68,17.64-24.13,22.74c-1.02,0.5-1.35,2.4-2,3.66c7.5-2.82,14.13-6.28,20.52-10.14
		c1.84-1.11,3.97-3.18,4.32-5.11c1.52-8.54,7.69-12.25,14.56-15.78c18.97-9.77,39.24-9.24,59.56-7.64
		C501.07,984.5,514.36,986.46,527.94,988.05z M279.08,594.75c-7.26,0-14.38,0.3-21.48-0.07c-9.08-0.48-16.98,1.33-24.7,6.84
		c-4.65,3.32-6.22,6.27-6.1,11.56c0.11,4.51,1.46,5.62,6.01,5.92c14.1,0.91,26.69-1.76,38.19-10.68
		C276.04,604.42,278.31,600.18,279.08,594.75z M254.34,687.69c1.79-6.75-1.88-13.45-7.64-13.79c-6.95-0.41-13.9-0.75-20.85-1.01
		c-15.46-0.58-25.61,9.02-25.8,24.57c-0.17,13.66-0.14,27.32-0.17,40.97c0,1.44,0.2,2.89,0.37,5.13c9.75-0.48,19.19-0.87,28.6-1.52
		c1.12-0.08,2.56-1.4,3.12-2.52c2.43-4.85,4.59-9.84,7.44-16.07c-3.7,2.73-6.28,4.68-8.91,6.56c-2.71,1.94-5.34,4.02-8.21,5.68
		c-8.23,4.75-14.93,1.26-15.08-7.89c-0.18-11.66-0.52-23.34,0.03-34.97c0.19-3.98,1.95-8.62,4.55-11.6
		c5.95-6.82,14.86-7.34,22.77-2.82c8.18,4.67,11.58,12.18,12.87,21.98c3.32-4.85,4.46-9.18,1.93-13.39
		c-2.25-3.75-5.45-6.93-8.36-10.53C246.07,677.54,246.07,677.54,254.34,687.69z M517.67,372.29c15.97-5.3,31.51-3.79,45.98,1.24
		c-4-11.33-8.08-22.66-11.98-34.04c-1.18-3.44-3.67-3.9-6.68-3.72c-3.96,0.24-8.17-0.06-9.84,4.88
		C531.26,352.21,526.11,363.09,517.67,372.29z M292.36,104.67c-4.74-3.28-9.19-6.16-13.44-9.32c-10.82-8.05-23.16-10.78-36.29-10.06
		c-3.81,0.21-7.68,1.82-11.21,3.47c-1.19,0.56-2,3.22-1.96,4.89c0.15,7.3,0.94,14.59,1,21.89c0.16,19.11,0.05,38.22,0.05,59.22
		c2.13-1.98,3.52-2.98,4.49-4.29c0.52-0.7,0.4-1.93,0.41-2.92c0.26-18.63,0.51-37.26,0.69-55.89c0.01-0.89-0.44-2.1-1.1-2.62
		c-4-3.12-1.7-6.74-0.81-10.1c1.17-4.42,4.57-6.43,8.91-6.76c9.46-0.71,18.63-0.16,26.59,6.03c2.88,2.24,6.08,4.08,9.16,6.07
		C283.11,107.04,287.47,106.75,292.36,104.67z M312.74,118.32c-3.7,1.48-4.37,3.79-2.74,6.87c2.11,3.97,4.67,7.76,6.37,11.89
		c3.72,9.07,6.59,18.49,10.59,27.43c6.08,13.59,12.77,26.92,19.29,40.31c5.23,10.75,10.53,21.46,15.93,32.12
		c1.93,3.81,4.23,7.44,6.57,11.52c1.67-1.47,2.99-2.63,3.99-3.5c-1.64-3.33-3.18-6.27-4.56-9.28c-4.14-9.08-7.98-18.31-12.43-27.22
		c-2.31-4.63-6.33-8.44-8.48-13.13C335.57,169.76,324.23,144.03,312.74,118.32z M153.66,279.8c1.81-3.42,0.06-6.11-2.98-7.93
		c-4.12-2.47-8.42-4.7-12.79-6.7c-6.81-3.11-13.79-5.84-20.62-8.9c-13.33-5.98-26.51-12.3-39.95-18.02
		c-6.97-2.96-9.67-1.16-11.84,5.95C94.78,256.03,124.04,267.84,153.66,279.8z M542.46,311.01c0.36-0.03,0.73-0.06,1.09-0.08
		c0,4.15,0,8.3,0,12.42c7.3,0.53,9.66-1.36,10.28-9.17c0.53-6.66,2.08-12.76,6.81-17.75c0.73-0.77,1.19-1.79,2.07-3.17
		c-15.22-0.53-29.8-2.26-43.58,0.79c5.55,8.79,11.01,17.42,16.74,26.48c0.03-5.89,2.67,0.03,4.83-2.15
		C541.11,316.66,541.79,313.83,542.46,311.01z M234.64,242.73c-2.14,5.89-0.01,9.26,3.82,12.04c21.8,15.82,43.53,31.73,65.4,47.45
		c10.62,7.63,21.51,14.91,32.27,22.35c0.38-0.33,0.77-0.65,1.15-0.98c-1.01-1.64-1.67-3.75-3.1-4.86
		c-21.38-16.66-42.82-33.25-64.35-49.72C258.38,260.23,246.71,251.72,234.64,242.73z M477.11,924.25c0.4,10.01,0.53,19.63,1.28,29.2
		c0.37,4.73-1.43,6.38-5.79,7.04c-10.7,1.6-21.35,3.58-32.04,5.31c-2.88,0.47-4.11,1.84-3.57,4.75c0.51,2.74,1.93,4.04,4.86,3.61
		c8.4-1.23,16.84-2.26,25.22-3.6c4.1-0.66,8.21-1.54,12.15-2.84c11.27-3.73,16.73-12.63,14.9-23.9c-0.58-3.59-2.06-6.54-6.23-7.04
		c-2.68,6.95,5.64,16.52-5.56,21.57c0.71-2.93,1.68-5.21,1.75-7.53c0.21-6.82,0.15-13.66,0.03-20.49
		C483.99,923.21,483.68,923.03,477.11,924.25z M352.67,768.42c2.14,7.65,4.04,9.57,13.07,12.25c26.66,7.92,53.21,7.59,79.43-1.97
		c2.51-0.92,4.88-2.84,6.7-4.85c1.99-2.21,2.1-5.44-0.8-6.81c-1.67-0.79-4.56-0.02-6.47,0.92c-4.24,2.08-7.97,5.35-12.34,6.94
		c-4.46,1.62-9.41,2.16-14.19,2.58c-19.49,1.69-38.94,2.71-57.23-6.55C358.58,769.78,355.92,769.39,352.67,768.42z M226.93,642.76
		c7.64,0.71,14.96,2.31,19.76-5.67c0.74-1.22,3.15-1.76,4.87-2c2.78-0.39,5.64-0.25,8.46-0.36c11.11-0.43,11.65-0.98,11.75-12.09
		c0.01-0.62-0.19-1.24-0.23-1.48c-5.25,0-10.2-0.02-15.15,0c-8.48,0.04-16.96,0.18-25.44,0.14c-2.96-0.01-4.15,1.08-4.06,4.12
		C227.05,631.05,226.93,636.69,226.93,642.76z M538.65,205.01c19.52-0.27,34.44-13.22,33.88-29.9
		c-0.74-21.94-12.78-33.23-32.75-33.55c-16.84-0.28-31.24,14.37-30.54,31.05C510.13,193.75,519.25,203.52,538.65,205.01z
		 M380.24,445.57c0.55-0.07,1.11-0.13,1.66-0.2c0-5.85,0.21-11.71-0.17-17.53c-0.08-1.17-2.39-3.14-3.67-3.14
		c-6.89-0.02-13.78,0.46-20.36,0.76c-1.46,4.84,0.94,10.96-6.46,11.23c0,5.47-0.04,10.78,0.01,16.09c0.06,6.02,2.25,7.65,8.42,6.39
		c0.61-1.85,1.21-3.69,1.82-5.54c0.18,0.5,0.35,0.99,0.53,1.49c4.01-0.58,8.18-0.65,11.99-1.86c5.82-1.85,2.8-7.25,2.92-12.59
		C378.65,443.2,379.44,444.38,380.24,445.57z M397.66,299.96c-6.53,1.39-7.49,1.82-7.67,6.71c-0.73,19.25-1.19,38.52-1.55,57.78
		c-0.06,3.28,0.86,6.58,1.28,9.88c0.44,3.48,3.09,3.94,5.51,3.27c1.22-0.34,2.68-2.59,2.72-4.01c0.43-18.46,0.74-36.92,0.82-55.39
		C398.8,312.29,398.08,306.36,397.66,299.96z M347.34,493.04c10.08-2.91,19.16-5.54,28.76-8.31c-7.14-8.86-4.32-16.2,1.94-22.52
		c-7.65,0.32-15.05,0.68-22.46,0.91c-4.28,0.13-7.73,2.21-8.07,6.23C346.9,476.91,347.34,484.55,347.34,493.04z M448.73,262.38
		c0.71,0.29,1.42,0.59,2.14,0.86c12.53,4.53,25.57,6.02,38.78,5.93c41.45-0.31,82.9-0.73,124.34-1.3c4.09-0.06,8.17-1.38,12.24-2.18
		c1.07-0.21,2.09-0.66,3.14-0.99c-31.21-0.46-60.97,0-90.73-0.05C508.74,264.58,478.75,266.57,448.73,262.38z M204.73,325.45
		c-0.37-0.01-0.74-0.01-1.11-0.02c-0.42,3.39-1.16,6.78-1.21,10.18c-0.42,24.96-0.72,49.92-1.03,74.88
		c-0.16,12.98,0.07,25.97-0.54,38.92c-0.4,8.43-1.29,17.03-7.78,23.5c1.75,2.9,3.17,5.75,5.08,8.22c1.12,1.46,3.02,2.32,4.56,3.46
		c0.77-1.82,2.22-3.65,2.2-5.46c-0.1-8.81-0.91-17.62-0.87-26.42c0.11-30.62,0.49-61.25,0.71-91.87
		C204.8,349.05,204.73,337.25,204.73,325.45z M592.36,983.27c16.55,2.4,33.24,4.82,49.88,7.24c2.53-4.1,0.13-6.68-2.73-8.89
		c-13.1-10.09-28.34-10.77-43.27-10.38C594.8,975.7,593.61,979.41,592.36,983.27z M204.5,613.13c-14.02,7.01-27.39,13.69-41.59,20.8
		c2.07,0.96,3.34,2.01,4.66,2.08c11.4,0.66,22.8,1.21,34.21,1.55c0.88,0.03,2.56-1.74,2.59-2.72
		C204.61,627.75,204.5,620.64,204.5,613.13z M637.34,389.3c-0.32-0.38-0.65-0.75-0.97-1.13c-8.01,6.53-16.81,10.8-27.2,9.89
		c-0.88,5.56,0.04,9.89,2.85,13.95c3.16,4.58,6.07,9.35,9.28,14.34c5.23-1.34,8.69-5.05,9.77-11.63c0.99-6.04,3.11-11.9,4.66-17.86
		C636.37,394.36,636.81,391.82,637.34,389.3z M556.85,308.91c0.57,0.35,1.14,0.71,1.71,1.06c12.44-18.55,29.57-28.28,51.9-26.78
		c22.48,1.51,37,14.97,47.28,34.15c0.43-1.03,0.5-1.67,0.49-2.31c-0.16-8.23-5.36-13.61-10.53-19.14
		c-29.4-31.45-71.1-18.1-88.03,6.21C558.29,304.07,557.77,306.63,556.85,308.91z M534.1,324.73c-2.13-3.88-4.13-7.3-5.92-10.83
		c-8.86-17.38-23.38-27.93-41.59-33.43c-22.37-6.75-42.96,1.06-55.56,20.51c-1.92,2.96-3.2,6.34-4.78,9.53
		c22.91-42.65,87.14-33.34,101.7,14.22C529.85,324.73,531.81,324.73,534.1,324.73z M678.04,400.49c0.59,0.26,1.17,0.52,1.76,0.78
		c0.83-1.39,2.31-2.75,2.39-4.19c0.66-10.79,1.43-21.6,1.45-32.4c0.03-20.29-0.45-40.58-0.63-60.87c-0.03-3.28-0.84-5.82-4.53-5.74
		c-4.55,0.1-2.91,3.76-2.71,6c0.48,5.45,1.96,10.84,2.11,16.28c0.62,21.95,0.96,43.91,1.21,65.86
		C679.17,390.97,678.42,395.73,678.04,400.49z M413.29,808.5c-4.44,0.73-8.56-2.79-12.14,1.48c0.07-1.16,0.16-2.51,0.25-3.87
		c12.71,1.2,12.71,1.2,13.5-6.76c-1.24-0.48-2.53-0.98-4.96-1.92c2.67-0.3,4.08-0.46,5.81-0.65c0.4-1.65,0.79-3.29,1.13-4.68
		c-7.64,0-14.75,0-22.57,0c1.09,1.73,1.68,2.67,2.28,3.62c-0.4-0.14-0.8-0.28-1.2-0.42c-0.63,1.79-1.26,3.59-2.04,5.82
		c3.26,0.77,5.76,1.37,8.69,2.06c0.75-3.12,1.43-5.9,2.1-8.68c0.27,0.07,0.55,0.14,0.82,0.2c-0.65,3.16-1.3,6.32-1.98,9.63
		c-3.44-0.32-6.38-0.59-9.77-0.91c-1.19,4.03-2.39,8.08-3.89,13.15c5.66,1.3,10.69,2.57,15.78,3.59c4.21,0.85,6.7-1.02,7.27-5.33
		C412.6,813.08,412.88,811.29,413.29,808.5z M226.54,503.01c0,31.31,0,62.07,0,93.75c3.97-2.6,7.2-4.72,9.58-6.28
		C228.37,561.29,234.72,531.58,226.54,503.01z M383.44,479.08c0.35-2.27,0.6-4.57,1.08-6.82c1.29-6.1,2.87-12.14,3.97-18.27
		c0.7-3.89,0.47-7.95,1.12-11.85c1.57-9.49,2.51-19.22,5.4-28.32c2.83-8.93,1.26-17.08-1.02-25.41c-0.59-2.16-2.58-3.94-3.93-5.9
		c-0.42,0.24-0.83,0.47-1.25,0.71c0,7.15-0.05,14.31,0.04,21.46c0.02,1.56,1.15,4.22,0.65,4.51c-4.75,2.83,0.24,4.1,0.25,5.95
		C385.7,436.22,380.93,457.22,383.44,479.08z M217.58,173.56c4.4,0.72,5.86-1.02,5.75-5.16c-0.16-6.65,0.2-13.31,0.22-19.97
		c0.05-13.42,0.01-26.84,0.01-40.57c-6.8,1.02-7.29-3.54-8.22-7.94c-1.01-4.77,2.8-5.14,5.52-6.89c4.85-3.11,9.44-6.64,14.13-10
		c-0.37-0.63-0.75-1.25-1.12-1.88c-6.71,3.41-13.43,6.79-20.1,10.29c-0.53,0.28-0.96,1.43-0.87,2.09c0.68,4.59,1.33,9.21,2.36,13.73
		c0.48,2.13,2.57,4.07,2.58,6.1c0.08,16.8-0.15,33.6-0.28,50.41C217.56,167.04,217.58,170.3,217.58,173.56z M474.61,939.62
		c-8.64,1.24-16.67,2.31-24.66,3.6c-1.26,0.2-2.94,1.09-3.45,2.14c-2.15,4.43-3.94,9.04-6.2,14.4c9.11-1.16,17.44-2.1,25.73-3.31
		c8.41-1.22,8.4-1.33,8.58-9.94C474.65,944.39,474.61,942.26,474.61,939.62z M461.78,428.31c3.8-4.97,7.69-9.87,11.34-14.93
		c1.34-1.85,2.49-3.99,3.12-6.17c1.42-4.98-0.64-8.23-5.67-9.05c-7.04-1.15-14.57-0.61-20.42-6.34
		C454.02,403.97,457.9,416.13,461.78,428.31z M927.02,582.58c-10.26-3.73-20.13-7.33-28.85-10.5c3.16,9.94,6.42,20.17,9.71,30.52
		C916.9,599.03,922.49,591.95,927.02,582.58z M776.13,879.43c-0.5-0.04-1-0.09-1.49-0.13c-1.12,8.04-4.05,15.1-10,20.54
		c-0.2,0.19-0.17,0.62-0.27,0.94c-1.66,5.07-3.33,10.14-5.29,16.11c6.44-2.77,13.36-5.05,19.53-8.63c4.21-2.43,7.11-7.16,5.24-12.39
		C781.82,890.2,778.74,884.9,776.13,879.43z M379.71,313.93c1.74-3.21,3.13-7.12,5.64-10.09c3.29-3.9,2.33-6.94,0.02-10.66
		c-5.46-8.77-10.66-17.71-15.2-25.29C367.97,283.05,367.68,299.72,379.71,313.93z M492.57,965.82c7.91,0,16.29,0,25.13,0
		c-0.18-3.5-0.31-6.06-0.48-9.24c-4.8,0.35-9.09,0.67-14.19,1.05c0-5.48,0.14-11.44-0.04-17.39c-0.16-5.48-2.9-9.64-7.98-11.62
		c-2.24-0.87-5.32-1.13-7.39-0.23c-1.2,0.52-1.18,3.89-1.74,6.13C498.62,934.76,503.19,951.09,492.57,965.82z M401.88,380.64
		c5.22-2.68,5.05-6.42,5.07-10.05c0.13-20.65,0.22-41.3,0.38-61.94c0.03-3.58,0.37-7.15,0.56-10.71c-5.3-0.34-6.44,2.21-6.35,6.46
		c0.26,12.32,0.27,24.64,0.32,36.97C401.92,354.13,401.88,366.89,401.88,380.64z M705.41,380.8c10.61-10.41,9.02-60.8-1.98-70.62
		C704.07,333.28,704.75,357.32,705.41,380.8z M460.73,681.81c8.17-8.34,14.83-16.63,17.42-27.5c0.4-1.69,0.29-3.75-0.28-5.39
		c-1.22-3.48-3.88-5.4-7.71-5c-3.67,0.38-5.59,2.67-5.98,6.26C463.05,660.39,461.95,670.6,460.73,681.81z M768.71,560.21
		c2.56-2.01,3.46-4.54-0.89-7.28c-10.54-6.65-20.94-13.53-31.57-20.02c-4.7-2.86-9.83-5-15.67-7.92c0.91,5.29,2.32,8.25,6.13,10.42
		C740.68,543.36,754.41,551.72,768.71,560.21z M244.79,714.99c-0.14-0.31-0.27-0.62-0.41-0.92c-7.37,0.41-14.74,0.86-22.11,1.22
		c-9.89,0.49-12.24,3.66-9.69,13.55c0.52,2.04,1.64,3.93,2.34,5.56C225.04,727.82,234.92,721.41,244.79,714.99z M376.37,324.77
		c1.69-4.52,2.46-8.5-1.31-12.2c-3.04-2.98-5.64-6.42-8.44-9.65c0.33-0.31,0.67-0.62,1-0.93c1.47,0.91,2.94,1.82,3.95,2.45
		c-1.44-2.81-4.23-5.8-4.27-8.83c-0.12-9.29,0.87-18.59,1.32-27.88c0.16-3.23,0.03-6.47,0.03-9.7c-0.46-0.3-0.93-0.6-1.39-0.89
		c-1.24,1.45-3.54,2.9-3.55,4.37c-0.13,16.13,0.08,32.26,0.24,48.4c0.01,1.01,0.38,2.01,0.83,4.3c1.22-2.68,1.89-4.14,2.81-6.16
		C368.82,318.06,368.82,318.06,376.37,324.77z M295.09,103.95c0.52-0.73,1.03-1.47,1.55-2.2c-1.73-2.27-3.07-5.05-5.26-6.72
		c-14.3-10.91-30.1-17.57-48.54-16.65c-3.64,0.18-5.43,1.58-5.92,5.74C259.56,80.79,278.18,89.78,295.09,103.95z M210.88,107.83
		c-4.97,4.19-4.97,9.36-5.06,14.2c-0.18,10.97,0.04,21.95,0.19,32.92c0.08,5.65,0.22,11.31,0.67,16.93c0.1,1.32,1.57,2.52,2.41,3.78
		c0.59-1.33,1.7-2.67,1.71-4C210.91,150.65,210.88,129.65,210.88,107.83z M279.02,915.52c0.5,0.05,1.01,0.1,1.51,0.15
		c-0.51,2.88-1.68,5.84-1.33,8.6c0.28,2.22,2.1,5.66,3.76,6.01c4.17,0.87,8.65,0.29,13,0.29c0.04-0.38,0.08-0.77,0.12-1.15
		c-2.94-0.32-5.88-0.63-9.09-0.98c0-6,0-11.57,0-17.36c-1.6-0.23-3.86-0.17-5.82-0.89c-5.35-1.98-7.76,0.93-9.27,5.27
		c-0.81,2.33-1.48,4.79-1.68,7.24c-0.56,6.64,1.71,8.6,7.27,7.9C278.02,925.39,278.52,920.45,279.02,915.52z M708.52,307.48
		c0.02,0.82,0.04,1.64,0.06,2.46c1.88,0.98,4.24,3.24,5.56,2.74c10.99-4.2,21.79-8.91,32.89-13.58c-2.28-4.15-4.55-7.48-8.89-5.58
		C728.15,297.91,718.38,302.79,708.52,307.48z M774.56,817.15c-1.67,4.48-0.31,7.4,3.08,10.21c4.96,4.1,9.34,8.89,14.2,13.11
		c5.77,5,11.79,9.7,18.31,15.02C810.84,848.66,785.9,822.8,774.56,817.15z M393.79,457.45c-5.99,5.52-8.05,12.38-8.4,19.92
		c-0.08,1.66,0.61,3.35,0.94,5.03c2-0.46,4.61-0.29,5.87-1.51c2.31-2.25,4.05-5.19,5.56-8.09c0.76-1.46,0.25-3.53,0.75-5.19
		c2.41-7.95,1.11-15.45-8.15-16.21c0,2.57,0,5.12,0,8.13C391.7,458.71,392.74,458.08,393.79,457.45z M510.35,328.31
		c-5.96-9.33-44.64-13.26-55.26-5.84C473.72,324.44,491.74,326.34,510.35,328.31z M411.88,557.36c19.01,3.54,37.78,4.98,54.29,15.22
		c2.07-3.2,0.99-4.98-1.83-6.52c-15-8.18-31.49-9.99-48.08-11.27C414.88,554.68,413.35,556.46,411.88,557.36z M625.02,959.54
		c-2.07-0.96-2.88-1.47-3.76-1.73c-6.95-2.03-11.74-6.53-13.42-13.46c-1.51-6.24-4.31-12.87,1.41-18.79
		c0.54-0.56-0.09-2.25-0.17-3.42c-4.06,1.45-8.14,2.86-12.15,4.46c-0.21,0.09,0.07,1.87,0.39,2.77c1.21,3.33,2.42,6.66,3.83,9.91
		c2.03,4.69,3.75,9.61,6.48,13.87C611.24,958.76,616.81,961.06,625.02,959.54z M409.89,280.06c-7.88-1.09-15.16-2.1-23-3.19
		c3.7,5.35,6.96,10.95,11.18,15.71c1.48,1.66,5.35,1.77,8.03,1.51c1.03-0.1,2.11-3.12,2.55-4.96
		C409.33,286.26,409.48,283.26,409.89,280.06z M373.31,257.24c0.08,16.59,11.7,27.25,17.61,40.8c2.24-1.31,3.95-2.29,5.71-3.32
		c-0.37-0.89-0.56-1.53-0.88-2.09c-5.98-10.53-11.9-21.09-18.05-31.52C376.77,259.51,374.8,258.52,373.31,257.24z M213.65,88.02
		c5.97-2.83,12.07-6.13,18.48-8.65c6.39-2.51,7.35-4.45,3.32-10.01c-1.25-1.73-2.67-3.59-4.46-4.58c-1.08-0.59-3.9-0.15-4.44,0.74
		C222,72.99,217.79,80.68,213.65,88.02z M382.38,371.94c0.66-0.04,1.31-0.07,1.97-0.11c0-19.74,0-39.49,0-59.71
		c-3.46,7.74-6.41,14.92-5.14,23.32c0.94,6.22,0.54,12.64,1.05,18.94C380.74,360.25,381.65,366.09,382.38,371.94z M692.03,228.51
		c15.95-14.19,31.08-27.66,46.21-41.14c-0.33-0.36-0.65-0.72-0.98-1.08C728,187.97,696.63,216.79,692.03,228.51z M384.96,557.82
		c7.52,2.1,14.65,3.69,22.24,2.14c4.1-0.84,2.36-4.53,3.79-6.62c-1.61-0.7-3.17-1.81-4.84-2.02c-5.22-0.65-10.58-0.48-15.68-1.59
		c-3.33-0.73-4.22,0.21-4.64,2.99C385.59,554.32,385.29,555.91,384.96,557.82z M267.9,906.96c-5.73-1.98-9.35-0.05-11.3,5.6
		c-2.12,6.13-1.05,9.19,4.01,11.07c0.48-1.46,0.95-2.91,1.42-4.36c0.3,0.06,0.6,0.12,0.9,0.19c-0.24,1.64-0.47,3.27-0.77,5.3
		c1.81,0.76,3.7,1.57,5.44,2.3c1.83-6.53,3.51-12.55,5.18-18.5c-5.98,0.26-8.18,1.99-7.73,6.25
		C262.25,912.79,262.25,912.79,267.9,906.96z M400.22,440.61c0-3.19,0.86-6.08-0.17-7.92c-2.62-4.7,0.79-8.77,0.54-13.13
		c-0.01-0.14,1.1-0.35,2.09-0.64c0.23,2.85,0.44,5.39,0.65,7.99c3.92-1.14,4.58-4.51,2.44-9.9c-2.13,0.45-4.28,0.63-6.19,1.4
		c-1.27,0.51-2.88,1.71-3.16,2.88c-1.67,6.92-3.05,13.92-4.43,20.91c-1.24,6.28-0.28,7.63,6.3,9.24c0.52-4.77,2.62-9.85-3.09-13.17
		C396.56,438.89,397.91,439.53,400.22,440.61z M361.51,311.15c4.36-13.47-4.99-21.2-12.33-30.34c-0.4,3.73-0.88,7.12-1.06,10.52
		c-0.1,1.92-0.41,4.45,0.61,5.7C352.74,301.97,357.24,306.52,361.51,311.15z M716.11,567.78c5.76-1.85,6.23-2.78,4.75-9.32
		c-6.84,0-13.52,0-20.19,0c-1.45,8.44-1.23,9.02,6.96,10.58c3.54,0.68,7.26,0.55,10.89,0.56c1.03,0,2.07-0.78,3.11-1.2
		c-0.1-0.34-0.21-0.67-0.31-1.01C719.58,567.52,717.85,567.65,716.11,567.78z M689.23,588.32c-7.28,2.92-22.04,42.96-21.75,57.49
		c1-2.57,2.16-5.09,2.95-7.72c0.81-2.7,0.93-5.63,1.94-8.23c1.07-2.76,3.07-5.14,4.23-7.87c3.95-9.35,7.75-18.76,11.5-28.2
		C688.73,592.2,688.82,590.4,689.23,588.32z M592.05,828.83c-9.56-1.54-12.02,0.49-11.09,8.68c0.58,5.09,6.12,10.21,12.89,11.44
		C593.24,842.09,592.64,835.4,592.05,828.83z M369.67,234.64c4.01-4.58,7.53-8.32,10.62-12.38c0.64-0.84-0.1-4.12-0.54-4.19
		c-4.52-0.72-9.12-1.39-13.68-1.29c-2.67,0.06-3.97,2.08-2.48,5.02C365.52,225.65,367.28,229.59,369.67,234.64z M643.92,556.3
		c11.39,8.8,22.51,17.46,33.74,25.97c0.98,0.75,2.69,0.53,4.06,0.77c0.08-0.48,0.17-0.95,0.25-1.43
		c-11.61-9.74-23.22-19.49-35.1-29.47C645.46,554.13,644.84,555.01,643.92,556.3z M873.53,810.32c0.39-0.23,0.78-0.47,1.17-0.7
		c-1.86-3.34-3.71-6.69-5.58-10.03c-0.55-0.99-1.88-2.44-1.61-2.87c2.93-4.53-0.84-6.38-3.3-8.73c-0.24-0.23-0.88-0.03-1.47-0.03
		c0.28,1.31,0.52,2.48,0.99,4.72c-4.26-3.19-7.67-5.75-11.49-8.61C856.02,796.31,863.85,804.11,873.53,810.32z M390.03,530.34
		c-2.52,7.35-1.82,8.73,6.73,10.09c3.59,0.57,7.27,0.87,10.9,0.77c5.78-0.15,6.28-0.89,6.51-6.13
		C406.23,533.51,398.42,531.98,390.03,530.34z M304.94,122.02c-2.12-4.89-3.66-8.43-5.4-12.45c-4.07,2.26-7.5,4.25-11.01,6.09
		c-2.82,1.47-3.43,4-2.02,6.24c1.11,1.75,3.71,3.86,5.41,3.68C296.06,125.14,300.05,123.45,304.94,122.02z M654.75,472.28
		c8.64,4.11,8.64,4.11,14.46-2.97c0.74-0.9,1.45-1.82,2.1-2.79c4.94-7.3,4.56-8.57-3.63-12.2c-0.28-0.12-0.64-0.06-0.92-0.08
		c0.24,0.69,0.9,1.71,0.66,2.02C663.32,461.59,659.1,466.82,654.75,472.28z M360.65,263.4c-0.76-0.18-1.52-0.35-2.27-0.53
		c-2.45,4.2-5.02,8.33-7.26,12.63c-0.47,0.89-0.16,2.76,0.52,3.58c2.95,3.58,6.17,6.94,9.29,10.39c0.46-0.21,0.93-0.42,1.39-0.63
		C361.75,280.36,361.2,271.88,360.65,263.4z M450.71,937.33c7.98-1.09,15.74-2.14,23.98-3.26c-0.71-3.22-1.25-5.67-1.84-8.34
		c-4.91,0.85-9.11,1.93-13.37,2.23C454.05,928.35,450.77,930.48,450.71,937.33z M346.08,345.46c1.01,2.37,1.37,5.84,3.16,6.92
		c6.81,4.09,14.07,7.44,21.19,11.01c2.54,1.27,5.14,2.41,8.47,3.95c-0.83-3.84-1.48-6.82-1.99-9.16
		C364.51,358.08,357.29,348.42,346.08,345.46z M363.82,385.96c0.33,0.02,0.66,0.04,0.99,0.06c0,6,0,12,0,18.01c0.24,0,0.48,0,0.72,0
		c0-7.41,0-14.82,0-22.53c-1.37-0.37-2.87-0.77-5.16-1.38c0,14.25,0,27.93,0,41.61c0.34,0.03,0.69,0.06,1.03,0.09
		c0.4-1.86,0.79-3.72,1.35-6.34c0.41,2.25,0.66,3.65,0.91,5.06c0.8-1.07,1.12-2.17,0.96-3.2c-0.64-4.03-2-8.03-2.02-12.05
		C362.55,398.85,363.36,392.4,363.82,385.96z M714.7,592.37c-2.36,0-4.34,0.15-6.28-0.05c-1.76-0.18-4.87-0.5-4.98-1.18
		c-0.93-5.35-6.02-4.43-8.94-6.8c-3.2,8.85-3.19,8.88,4.85,12.48c1.37,0.61,2.77,1.15,4.16,1.71
		C710.99,601.54,712.63,600.68,714.7,592.37z M560.43,386.74c-0.93-0.49-2.15-1.29-3.49-1.8c-10.85-4.12-21.99-2.91-33.04-1.29
		c-2.34,0.34-4.53,2.59-6.46,4.32c-0.71,0.63-0.48,2.32-0.67,3.53c1.15-0.17,2.34-0.21,3.44-0.53c4.7-1.36,9.32-3.68,14.08-4.04
		C542.98,386.27,551.76,386.74,560.43,386.74z M486.13,743.74c0.63,0.17,1.26,0.35,1.88,0.52c5.94-26.52,11.88-53.04,17.81-79.56
		c-0.69-0.15-1.39-0.3-2.08-0.46C497.87,690.74,492,717.24,486.13,743.74z M411.98,543.73c-8.02-1.11-15.8-2.2-24.53-3.41
		c0.16,1.56-0.5,4.97,0.87,6.3c1.99,1.94,5.4,3.94,8.09,0.37c1.07,4.76,4.74,2.72,7.14,2.74
		C407.84,549.74,411.92,548.8,411.98,543.73z M690.78,514.43c0.63,1.53,1.24,2.99,2.28,5.51c6.41-3.7,12.45-7.19,18.93-10.94
		c-1.56-2.55-2.8-4.57-4.05-6.62C702.07,506.5,696.67,510.3,690.78,514.43z M610.55,943.34c4.23-3.37,10.14-3.48,7.81-9.67
		c-1.23-3.27-3.6-3.94-7.09-2.8c0.71,2.85,1.38,5.53,1.97,7.88c-1.18,1.28-2.91,2.29-3.12,3.55c-1.02,6.07,8.12,13.18,14,10.99
		c-1.05-2.23-2.11-4.45-2.79-5.9C617.68,946.02,614.61,944.87,610.55,943.34z M700.85,550.23c-1.73,4.69,0.26,6.49,4.39,6.83
		c2.64,0.22,5.28,0.87,7.89,0.76c7.21-0.32,8.67-2.41,7.11-10.26c-3.34,1.86-6.5,3.62-9.35,5.2
		C710.25,550.26,709.32,549.9,700.85,550.23z M397.84,412.49c8.94-0.83,11.47-4.63,7.85-10.78c-2.55-4.34-4.33-9.12-6.67-13.59
		c-0.67-1.29-2.07-2.21-3.13-3.3c0.37,5.04,1.66,9.16,2.42,13.37c0.5,2.81,1.7,4.11,4.52,3.96c0.18-0.01,0.38,0.27,0.64,0.48
		c-1.55,0.26-2.94,0.49-4.15,0.7C398.78,406.64,398.32,409.53,397.84,412.49z M289.97,785.5c0.82,11.68,24.47,22.57,38.67,17.84
		c-6.53-1.4-14.31-1.82-20.91-4.84C301.14,795.48,295.74,789.86,289.97,785.5z M729.61,953.52c17.21,0.49,36.93,1.05,56.56,1.6
		c-0.19-3.44-2.46-4.08-5.74-3.92C762.69,952.09,744.95,952.83,729.61,953.52z M517.36,987.26c-0.11,0.35-0.22,0.69-0.33,1.04
		c12.02,5.56,24.05,11.11,36.25,16.75c0.34-4.71,0.35-4.73-2.94-5.92C539.35,995.17,528.35,991.22,517.36,987.26z M277.11,730.85
		c-1.22-17.97,2.14-34.84,11.7-50.46c-5.72,8.34-13.15,15.46-16.43,26.54c2.16-1.38,3.14-2,4.73-3.01
		C277.11,713.39,277.11,722.12,277.11,730.85z M548.97,625.75c-0.47,0.04-0.94,0.09-1.4,0.13c2.53,27.31,5.07,54.61,7.6,81.92
		c0.45-0.04,0.91-0.08,1.36-0.12C554.01,680.37,551.49,653.06,548.97,625.75z M506.33,953.47c13.55-0.22,10.95,1.3,12.53-8.95
		c-4.16,0-8.35,0-12.53,0C506.33,947.93,506.33,950.7,506.33,953.47z M629.66,436.19c-0.38,0.25-0.76,0.5-1.14,0.75
		c0.11,1.45,0.23,2.9,0.42,5.4c-1.25-2.98-2.05-4.91-2.86-6.83c-0.33,0.11-0.67,0.23-1,0.34c-0.59,6.87-1.18,13.74-1.84,21.37
		c6.06-4.36,8.24-10.21,9.57-16.29C633.1,439.64,630.78,437.78,629.66,436.19z M595.02,957.18c0.46,3.1,0.83,5.65,1.32,9.01
		c5.39-0.93,10.33-1.77,14.99-2.57C608.53,954.51,601.35,958.07,595.02,957.18z M306.76,906.48c-5.65,4.28-14.99,0.6-18.45,11.1
		c7.37-1.4,13.4-2.54,19.55-3.71C307.47,911.21,307.18,909.29,306.76,906.48z M505.81,941.02c3.61,0,6.93-0.35,10.15,0.08
		c5.87,0.77,7.08-2.92,8.13-7.35C510.49,933.16,506.59,934.6,505.81,941.02z M534.67,573.44c-0.62,0.45-1.88,1.36-3.09,2.23
		c3.17,8.01,9.38,8.69,16.83,2.86c-1.95-1.3-4.18-2.79-5.8-3.87C539.94,574.25,537.72,573.91,534.67,573.44z M380.61,483.54
		c0-6.5,0-12.76,0-19.89c-4.63,4.23-7.69,8.14-6.07,13.84C375.36,480.39,376.34,483.57,380.61,483.54z M376.28,353.62
		c0.36-0.42,0.71-0.83,1.07-1.25c-10.14-7.62-20.28-15.23-30.41-22.85c-0.33,0.24-0.65,0.48-0.98,0.72c1.58,2.04,2.8,4.59,4.81,6.03
		C359.14,342.24,367.75,347.87,376.28,353.62z M703.23,303.06c0.51,0.68,1.02,1.36,1.52,2.04c6.01-2.83,12.15-5.41,18-8.55
		c8.29-4.46,16.38-9.19,25.95-2.89c-4.9-4.71-10.61-5.85-16.53-3.46c-8.74,3.53-17.26,7.63-25.87,11.49
		C705.27,302.15,704.25,302.6,703.23,303.06z M330.8,255.81c4.89-1.42,3.89,2.77,5.11,4.65c1.56,2.39,2.86,4.95,4.94,8.61
		c0.31-11.32-3.51-19.72-10.65-23.8C330.42,248.95,330.6,252.13,330.8,255.81z M239.66,322.37c-0.71-6.31-5.51-10.27-11.97-10.62
		c0,3.19,0,6.35,0,8.73C232.12,321.18,235.82,321.77,239.66,322.37z M244.06,590.06c0.24,0.58,0.48,1.16,0.72,1.74
		c10.9-2.35,18.75-10.47,28.3-15.38c-0.33-0.63-0.67-1.25-1-1.88C262.74,579.72,253.4,584.89,244.06,590.06z M545.15,767.24
		c-0.3-0.33-0.6-0.65-0.9-0.98c-0.82,0.56-1.68,1.07-2.45,1.69c-4.82,3.82-9.67,7.62-14.43,11.5c-8.42,6.86-8.4,6.89-17.27,2.19
		c2.65,2.49,5.29,4.98,8.64,8.14C527.64,782.18,536.39,774.71,545.15,767.24z M836.3,793.91c4.14,4.62,8.97,7.17,15.56,5.56
		C844.55,790.49,841.35,789.37,836.3,793.91z M226.22,92.84c-8.25,4.94-9.74,6.98-7.4,10.68c2.59,4.1,5.58,1.7,7.95,0.59
		C226.57,100.13,226.4,96.62,226.22,92.84z M509.47,333.2c0.09-0.64,0.17-1.29,0.26-1.93c-12.32-2.38-24.72-4.2-37.35-4.38
		c-0.05,0.41-0.11,0.81-0.16,1.22C484.63,329.8,497.05,331.5,509.47,333.2z M653.47,982.56c-0.32,0.45-0.63,0.9-0.95,1.34
		c5.03,4.25,10.06,8.5,15.36,12.98c1.13-1.53,1.94-2.63,3.36-4.54C664.99,988.9,659.23,985.73,653.47,982.56z M507.13,647.43
		c0.46,0.12,0.91,0.24,1.37,0.36c4.64-17.74,9.29-35.47,13.93-53.21c-0.42-0.11-0.84-0.22-1.26-0.33
		C516.5,611.98,511.81,629.7,507.13,647.43z M590.19,95.68c7.55,3.26,15.27,4.34,22.97,1.58c0-0.53,0-1.05,0.01-1.58
		C605.51,95.68,597.85,95.68,590.19,95.68z M297.71,105.7c-6.59,1.37-12.27,2.55-17.84,3.7c1.96,5.32,3.15,5.85,8.27,3.22
		c2.5-1.29,5.14-2.34,7.55-3.77C296.55,108.34,296.91,107,297.71,105.7z M593,945.66c0.22,8.55,2.27,10.11,9.88,7.52
		C601.02,944.85,599.85,943.96,593,945.66z M301.62,109.14c1.53,3.13,2.83,5.8,4.16,8.46c0.14,0.28,0.46,0.46,0.7,0.69
		c6.15-3.32,6.42-5.01,1.79-12.29C306.24,106.96,304.17,107.94,301.62,109.14z M621.67,568.51c-0.6,7.64-1.18,14.98-1.75,22.31
		c0.24,0.03,0.48,0.06,0.72,0.1c1.93-6.11,3.85-12.23,5.74-18.23C625,571.48,623.65,570.27,621.67,568.51z M616.14,965.25
		c0,0.4,0,0.8,0,1.19c3.96,0.91,7.89,1.94,11.88,2.64c1.24,0.22,3.01-0.05,3.85-0.83c0.6-0.57,0.56-2.82-0.08-3.48
		c-0.96-1-2.75-1.88-4.06-1.73C623.84,963.5,620,964.48,616.14,965.25z M743.43,717.75c0-4.25,0-8.96,0-14.51
		c-2.56,4.94-4.76,9.17-6.98,13.46C739.24,717.12,741.03,717.39,743.43,717.75z M259.78,618.53c13.24-0.58,14.96-1.79,14.47-9.28
		C269.76,612.14,265.18,615.07,259.78,618.53z M592.5,941.61c2.4,0,4.42,0,6.83,0c-0.55-3.2-1.01-5.9-1.46-8.54
		C591,933.4,590.71,933.89,592.5,941.61z M227.22,602.77c5.67-3.28,10.43-6.04,15.45-8.95
		C238.39,591.23,228.24,596.68,227.22,602.77z M405.59,399.51c3.29-10.63,1.54-15.71-4.7-14.52
		C402.48,389.91,404.04,394.71,405.59,399.51z M534.71,545.41c3.83,0.33,9.07-0.28,13.36,1.45c4.09,1.65,7.18,5.76,10.46,8.57
		C556.24,544.76,541.8,541,534.71,545.41z M537.09,418.74c3.77-7.38,3.68-21.94,0-24.09C537.09,402.46,537.09,409.99,537.09,418.74z
		 M723.69,845.52c-7.84-2.47-15.05,1.52-13.85,7.29C714.28,850.48,718.59,848.21,723.69,845.52z M380.85,451.27
		c-4.19,2.64-8.29,5.23-11.88,7.49C379.68,459.78,379.68,459.78,380.85,451.27z M640.06,237.84c-1.19-5.98-0.59-12.5-5.26-17.27
		C636.39,226.41,634.53,233.29,640.06,237.84z M545.08,627.75c-0.62-9.35-1.23-18.48-1.84-27.6c-1.43,2.78-2.75,5.64-2.36,8.25
		C541.84,614.83,543.59,621.13,545.08,627.75z M349.04,436.55c-0.31-0.02-0.62-0.03-0.93-0.05c0,8.92,0,17.85,0,26.77
		c0.31,0,0.62,0.01,0.93,0.01C349.04,454.37,349.04,445.46,349.04,436.55z M777.04,806.48c3.57-1.42,5.74-5.49,4.67-8.74
		C775.26,800.54,774.96,801.1,777.04,806.48z M380.85,254.67c-1.86-3.38-3.06-5.55-4.26-7.73c-1.39,2.31-2.79,4.61-4.67,7.73
		C375.31,254.67,377.03,254.67,380.85,254.67z M298.31,106.17c0.53,0.37,1.05,0.75,1.58,1.12c2.68-0.96,5.35-1.91,8.45-3.02
		c-2.38-3.64-5.05-3.7-7.77-1.8C299.49,103.23,299.04,104.91,298.31,106.17z M284.62,668.97c0.25,0.31,0.5,0.63,0.75,0.94
		c4.22-3.42,8.44-6.85,12.66-10.27c-0.48-0.56-0.97-1.12-1.45-1.68C292.59,661.63,288.6,665.3,284.62,668.97z M555.19,394.68
		c-4.42,0.81-5.18,3.05-4.01,10.17c0.58,3.54,1.09,3.94,4.86,3.39C551.37,404.09,552.65,399.47,555.19,394.68z M716.91,871.3
		c2.72-0.74,4.87-1.2,6.88-2.02c0.27-0.11,0.18-2.63-0.38-2.97c-1.5-0.89-3.35-1.21-4.99-1.73
		C717.87,867.01,717.52,868.59,716.91,871.3z M321.79,695.3c-2-4.87-6.89-2.15-10.3-3.51C313.61,696.12,318.07,694.74,321.79,695.3z
		 M639.33,935.45c1.47,2.66,2.48,4.47,3.48,6.27c0.22-0.07,0.43-0.14,0.65-0.21c-0.11-1.29-0.22-2.58-0.38-4.5
		c5.06,0,9.75,0,14.43,0c-0.02-0.16-0.03-0.31-0.05-0.47C651.74,936.21,646.02,935.86,639.33,935.45z M314.41,904.65
		c-2.47,2.22-7.73,2.81-4.81,8.43C315.61,912.69,313.98,908.07,314.41,904.65z M318.8,181.82c-0.03,0.53-0.05,1.06-0.08,1.59
		c3.66,0,7.32,0,10.98,0C326.19,178.8,322.45,181.64,318.8,181.82z M691.32,534.65c-0.05-0.35-0.1-0.71-0.14-1.06
		c-7.82,1.09-15.63,2.19-23.45,3.28c0.03,0.24,0.07,0.49,0.1,0.73C675.66,536.62,683.49,535.64,691.32,534.65z M254.03,326.92
		c2.99-0.94,5.64-1.77,8.3-2.59c0.02-0.33,0.05-0.65,0.07-0.98c-3.05-0.52-6.1-1.04-9.99-1.7
		C253.21,324.26,253.67,325.75,254.03,326.92z M270.16,101.7c-0.59,5.57,2.47,7.69,8.64,6.27
		C275.81,105.8,273.26,103.95,270.16,101.7z M828.38,906.92c-0.11,0.01-0.22,0.02-0.33,0.03c0,8.22,0,16.44,0,24.66
		c0.11-0.01,0.22-0.03,0.33-0.04C828.38,923.36,828.38,915.14,828.38,906.92z M440.52,844.38c-0.11,0.08-0.23,0.15-0.34,0.23
		c0,8.66,0,17.33,0,25.99c0.11,0,0.23,0,0.34,0C440.52,861.86,440.52,853.12,440.52,844.38z M822.25,931.73
		c0.23-0.01,0.45-0.02,0.68-0.03c-0.34-7.76-0.69-15.52-1.03-23.28c-0.3,0.01-0.61,0.03-0.91,0.04
		C821.41,916.22,821.83,923.98,822.25,931.73z M858.51,834.47c0.25-0.32,0.5-0.64,0.75-0.97c-3.01-2.09-4.45-6.31-9.5-5.66
		C852.67,830.06,855.59,832.26,858.51,834.47z M642.12,548.02c0.39,0.55,0.78,1.1,1.17,1.65c2.51-1.83,5.03-3.66,7.54-5.49
		c-0.31-0.44-0.63-0.88-0.94-1.32C647.3,544.59,644.71,546.31,642.12,548.02z M408.89,258.47c2.57,3.18,4.29,5.3,6.12,7.56
		C418.02,261.27,417.76,260.92,408.89,258.47z M290.04,692.35c-0.61,4.54-1.22,9.08-1.84,13.62
		C289.04,701.48,293.34,697.52,290.04,692.35z M535.12,585.71c0.07,0.42,0.15,0.85,0.22,1.27c4.11-0.72,8.23-1.44,12.34-2.16
		c-0.07-0.38-0.13-0.76-0.2-1.14C543.37,584.35,539.24,585.03,535.12,585.71z M496.95,767.48c0.16-0.15,0.31-0.29,0.47-0.44
		c-3.53-3.68-7.07-7.37-10.6-11.05c-0.4,0.39-0.81,0.78-1.21,1.17C489.39,760.6,493.17,764.04,496.95,767.48z M522.85,408.09
		c7.44-0.62,5.57-5.77,5.92-9.43c0.11-1.16-1.07-2.45-1.66-3.68c-0.39,0.19-0.79,0.38-1.18,0.57
		C529.51,401.11,529.23,402.51,522.85,408.09z M810.71,955.86c-0.31-0.27-0.62-0.54-0.93-0.82c-3.6,3.95-7.2,7.91-10.8,11.86
		c0.24,0.22,0.49,0.45,0.73,0.67C803.37,963.67,807.04,959.77,810.71,955.86z M549.47,115.87c-0.03-0.09-0.06-0.18-0.09-0.26
		c-6.93,0-13.87,0-20.8,0c0,0.09,0,0.18,0.01,0.26C535.54,115.87,542.51,115.87,549.47,115.87z M355.68,780.71
		c-2.62,3.55-5.09,6.88-7.74,10.47C354.76,786.48,356.92,783.43,355.68,780.71z M254.86,748.54c-0.1,0.03-0.19,0.06-0.29,0.09
		c0,6.94,0,13.88,0,20.82c0.1,0,0.19,0,0.29,0C254.86,762.47,254.86,755.51,254.86,748.54z M297.53,334.19
		c0.27-0.21,0.55-0.43,0.82-0.64c-1.38-1.47-2.54-3.46-4.24-4.2c-0.81-0.35-2.65,1.67-4.52,2.95
		C292.83,333.08,295.18,333.63,297.53,334.19z M733.73,943.35c0.41-0.28,0.82-0.55,1.23-0.83c-2.02-2.66-4.03-5.33-6.05-7.99
		c-0.48,0.38-0.96,0.76-1.44,1.14C729.56,938.23,731.64,940.79,733.73,943.35z"/>
	<path d="M566.96,355.2c-6.12-8.55-10.7-17.65-8.02-28.56c4.7-19.14,22.14-34.46,41.99-37.27c18.7-2.65,39.05,6.94,48.05,24.78
		c9.78,19.39,8.23,34.49-4.4,51.47c-13.81,18.57-37.43,23.97-58.34,13.88c-9.96-4.81-15.44-13.31-19.83-22.86
		c3.32,3.65,6.64,7.31,9.96,10.96c14.33,15.75,39.59,18.46,56.7,5.81c3.13-2.31,5.43-5.76,8.12-8.68c-0.34-0.34-0.68-0.67-1.03-1.01
		c-4.47,2.71-8.78,5.74-13.44,8.06c-13.67,6.82-27.44,8.03-40.55-1.25C579.49,365.83,573.35,360.35,566.96,355.2z M580.78,322.42
		c19.35,2.12,37.53,4.12,55.71,6.11C625.48,317.37,593.21,313.92,580.78,322.42z M592.75,325.45c-0.09,0.76-0.17,1.51-0.26,2.27
		c15.98,1.68,31.67,5.39,47.62,7.28c0.13-0.95,0.27-1.89,0.4-2.84C624.59,329.92,608.67,327.68,592.75,325.45z"/>
</g>
</svg>
